<svg width="147" height="147" viewBox="0 0 147 147" fill="none" xmlns="http://www.w3.org/2000/svg">
<path d="M73.5 147C114.093 147 147 114.093 147 73.5C147 32.9071 114.093 0 73.5 0C32.9071 0 0 32.9071 0 73.5C0 114.093 32.9071 147 73.5 147Z" fill="#75A488"/>
<path d="M72.8125 61.5938C75.6875 61.5938 77.5156 62.3125 78.2969 63.75C79.0781 65.1875 79.4688 67.0938 79.4688 69.4688V97.2188C79.4688 99.625 79.0781 101.531 78.2969 102.938C77.5156 104.312 75.7188 105 72.9062 105C70.1562 105 68.3594 104.344 67.5156 103.031C66.6719 101.688 66.25 99.875 66.25 97.5938V89.25H50.2188C43.7188 89.25 40.4688 87.375 40.4688 83.625C40.4688 83.25 40.5 82.875 40.5625 82.5C40.6562 82.125 40.75 81.75 40.8438 81.375L50.3125 48.4688C50.7812 46.7188 51.25 45.1719 51.7188 43.8281C52.1875 42.4531 52.9062 41.375 53.875 40.5938C54.8438 39.7812 56.3125 39.375 58.2812 39.375C60.375 39.375 61.8438 39.9062 62.6875 40.9688C63.5625 42 64 43.3438 64 45C64 46.5625 63.8281 47.8438 63.4844 48.8438C63.1719 49.8438 62.8438 51 62.5 52.3125C62.5 52.3438 62.3906 52.7344 62.1719 53.4844C61.9531 54.2344 61.7188 55.0469 61.4688 55.9219C61.1875 56.8594 60.8281 58.125 60.3906 59.7188C59.9844 61.3125 59.6094 62.7031 59.2656 63.8906C58.7656 65.5781 58.25 67.3906 57.7188 69.3281C57.1875 71.2344 56.625 73.25 56.0312 75.375L56.4062 75.75H66.25V69.375C66.25 67 66.6406 65.1094 67.4219 63.7031C68.2031 62.2969 70 61.5938 72.8125 61.5938ZM90.625 85.7812V50.0625C90.625 48.0625 90.7969 46.2656 91.1406 44.6719C91.5156 43.0469 92.25 41.7656 93.3438 40.8281C94.4688 39.8594 96.1562 39.375 98.4062 39.375C100.719 39.375 102.422 39.8438 103.516 40.7812C104.641 41.7188 105.359 43 105.672 44.625C106.016 46.2188 106.188 48.0312 106.188 50.0625V87C106.281 88.3438 106.562 89.5625 107.031 90.6562C107.469 91.6875 108.125 92.5625 109 93.2812C109.906 93.9688 111.031 94.3125 112.375 94.3125C113.75 94.3125 114.891 93.9688 115.797 93.2812C116.703 92.5938 117.359 91.7188 117.766 90.6562C118.266 89.5312 118.531 88.3125 118.562 87V50.0625C118.562 48.0312 118.719 46.2188 119.031 44.625C119.375 43 120.094 41.7188 121.188 40.7812C122.312 39.8438 124.031 39.375 126.344 39.375C128.625 39.375 130.312 39.8594 131.406 40.8281C132.5 41.7656 133.219 43.0469 133.562 44.6719C133.938 46.2656 134.125 48.0625 134.125 50.0625V85.7812C134.125 89.0312 133.609 91.875 132.578 94.3125C131.547 96.7188 130.062 98.75 128.125 100.406C124.25 103.719 119 105.375 112.375 105.375C105.812 105.375 100.578 103.688 96.6719 100.312C94.7656 98.6562 93.2812 96.6094 92.2188 94.1719C91.1562 91.7344 90.625 88.9375 90.625 85.7812Z" fill="#55836F"/>
<path d="M27.1602 36.6406H46.3008C48.2539 36.6406 50.0768 36.7871 51.7695 37.0801C53.4948 37.3405 54.8783 37.959 55.9199 38.9355C56.9941 39.9121 57.5312 41.4583 57.5312 43.5742C57.5312 45.6901 56.9941 47.2363 55.9199 48.2129C54.8783 49.1895 53.4948 49.8242 51.7695 50.1172C50.0768 50.3776 48.2539 50.5078 46.3008 50.5078H34.6797V63.7891H40.832C42.7526 63.7891 44.543 63.9193 46.2031 64.1797C47.8633 64.4076 49.1979 64.9935 50.207 65.9375C51.2487 66.849 51.7695 68.3464 51.7695 70.4297C51.7695 72.513 51.2487 74.0267 50.207 74.9707C49.1979 75.8822 47.8633 76.4681 46.2031 76.7285C44.543 76.9564 42.7526 77.0703 40.832 77.0703H34.6797V91.1328H46.3008C48.2539 91.1328 50.0768 91.263 51.7695 91.5234C53.4948 91.7839 54.8783 92.4023 55.9199 93.3789C56.9941 94.3229 57.5312 95.8529 57.5312 97.9688C57.5312 100.117 56.9941 101.696 55.9199 102.705C54.8457 103.682 53.446 104.316 51.7207 104.609C50.028 104.87 48.2214 105 46.3008 105H27.1602C24.849 105 23.1725 104.495 22.1309 103.486C21.1217 102.477 20.487 101.126 20.2266 99.4336C19.9661 97.7409 19.8359 95.8529 19.8359 93.7695V47.8711C19.8359 45.7878 19.9661 43.8997 20.2266 42.207C20.487 40.5143 21.1217 39.1634 22.1309 38.1543C23.1725 37.1452 24.849 36.6406 27.1602 36.6406Z" fill="white"/>
</svg>
