<svg width="147" height="147" viewBox="0 0 147 147" fill="none" xmlns="http://www.w3.org/2000/svg">
<path d="M73.5 147C114.093 147 147 114.093 147 73.5C147 32.9071 114.093 0 73.5 0C32.9071 0 0 32.9071 0 73.5C0 114.093 32.9071 147 73.5 147Z" fill="#75A488"/>
<path d="M62.1929 131.093C62.1929 131.093 60.2587 129.616 56.8691 129.405C54.2997 129.245 52.4617 130.524 51.6519 131.265C50.4289 131.09 49.1953 130.868 47.9627 130.565C49.4672 130.375 52.1297 129.824 53.3025 128.187C54.4428 126.599 53.7136 124.218 53.7136 124.218C50.7136 124.027 48.1858 125.062 47.2369 127.274C46.6276 128.694 46.6974 129.719 46.7875 130.25C44.6933 129.666 42.6614 128.89 40.8644 127.956C42.3297 127.853 45.3919 127.26 46.3893 124.235C46.978 122.458 45.7049 120.471 45.7049 120.471C45.7049 120.471 40.0677 120.678 39.4694 124.257C39.2289 125.711 39.5247 126.743 39.7787 127.359C39.7061 127.315 39.6268 127.275 39.5542 127.232C35.8872 124.988 33.5854 122.023 34.2159 118.211L32.9376 118C32.2521 122.144 34.8816 125.539 38.8217 127.95C39.0613 128.097 39.3216 128.23 39.5685 128.369C39.2631 128.583 37.7028 129.743 37.2513 132.472C36.7522 135.489 41.1883 137.609 41.1883 137.609C41.1883 137.609 43.1519 136.386 43.5333 134.081C43.8945 131.898 41.7879 129.867 40.5442 128.89C42.368 129.81 44.3714 130.572 46.4299 131.151C46.3613 131.305 45.081 134.296 47.2338 136.456C49.4443 138.674 51.7978 138.768 51.7978 138.768C51.7978 138.768 52.8971 135.832 51.1041 133.835C49.9678 132.579 47.8964 131.671 46.9402 131.293C48.6039 131.735 50.2879 132.054 51.9341 132.268C52.7155 132.738 54.068 133.428 55.9437 133.738C60.0176 134.412 62.1929 131.093 62.1929 131.093Z" fill="white"/>
<path d="M78.8448 131.06C78.8448 131.06 76.5544 130.237 73.2597 131.061C70.7621 131.685 69.397 133.46 68.849 134.411C67.6302 134.613 66.3872 134.775 65.1208 134.859C66.4972 134.222 68.8686 132.892 69.4918 130.978C70.0986 129.12 68.6836 127.07 68.6836 127.07C65.7662 127.795 63.6696 129.546 63.4338 131.941C63.2824 133.479 63.6588 134.435 63.9053 134.914C61.7324 134.99 59.561 134.865 57.5657 134.517C58.9313 133.976 61.6711 132.486 61.7074 129.301C61.731 127.428 59.9168 125.919 59.9168 125.919C59.9168 125.919 54.6059 127.821 55.1178 131.414C55.3281 132.873 55.9219 133.766 56.3503 134.277C56.268 134.257 56.1803 134.243 56.098 134.224C51.9242 133.193 48.8338 131.063 48.2824 127.239L46.9999 127.424C47.5993 131.581 51.1324 134.023 55.6168 135.129C55.8897 135.197 56.178 135.245 56.4556 135.304C56.2291 135.6 55.0924 137.177 55.4871 139.915C55.9236 142.942 60.793 143.621 60.793 143.621C60.793 143.621 62.295 141.862 61.9616 139.549C61.6457 137.359 59.0238 136.06 57.5428 135.504C59.5596 135.831 61.6997 135.951 63.8367 135.88C63.8181 136.048 63.502 139.287 66.2069 140.694C68.9847 142.141 71.2562 141.518 71.2562 141.518C71.2562 141.518 71.4165 138.387 69.1037 137.026C67.6409 136.172 65.392 135.933 64.3662 135.862C66.0855 135.78 67.7872 135.575 69.421 135.281C70.3079 135.493 71.8059 135.742 73.6876 135.471C77.7746 134.881 78.8448 131.06 78.8448 131.06Z" fill="white"/>
<path d="M94.9005 130.318C94.9005 130.318 92.5433 129.871 89.377 131.093C86.9766 132.019 85.825 133.856 85.3893 134.814C84.2067 135.171 82.9954 135.494 81.7524 135.748C83.0424 134.966 85.239 133.402 85.6413 131.54C86.0337 129.731 84.4052 128.026 84.4052 128.026C81.6009 129.103 79.7232 131.019 79.7577 133.274C79.7798 134.722 80.259 135.557 80.5563 135.967C78.4158 136.339 76.2544 136.525 74.2422 136.479C75.5323 135.788 78.0752 134.024 77.7552 131.064C77.5692 129.323 75.6063 128.175 75.6063 128.175C75.6063 128.175 70.5664 130.677 71.4743 133.939C71.8454 135.264 72.5326 136.01 73.0134 136.425C72.9298 136.418 72.8415 136.417 72.7579 136.411C68.5149 136.034 65.2203 134.487 64.2475 131.015L62.9998 131.364C64.0573 135.138 67.8245 136.914 72.3832 137.318C72.6607 137.343 72.9511 137.347 73.2322 137.363C73.0414 137.669 72.0934 139.29 72.7899 141.776C73.5599 144.524 78.4518 144.479 78.4518 144.479C78.4518 144.479 79.7406 142.638 79.1522 140.538C78.595 138.549 75.8567 137.708 74.33 137.398C76.361 137.421 78.4911 137.236 80.5965 136.873C80.5969 137.032 80.6463 140.081 83.4788 141.011C86.3877 141.968 88.5646 141.075 88.5646 141.075C88.5646 141.075 88.3731 138.147 85.9336 137.205C84.3915 136.616 82.1406 136.707 81.1182 136.783C82.8094 136.468 84.4693 136.041 86.0523 135.542C86.9532 135.616 88.4625 135.639 90.2932 135.126C94.2693 134.012 94.9005 130.318 94.9005 130.318Z" fill="white"/>
<path d="M85.3522 24.5965C85.3522 24.5965 87.7286 25.4609 90.9533 24.3756C93.398 23.5536 94.5958 21.4412 95.0536 20.3169C96.2563 20.034 97.4874 19.7978 98.7493 19.6502C97.4304 20.4427 95.1805 22.0786 94.7402 24.3229C94.3109 26.5015 95.9277 28.8222 95.9277 28.8222C98.7837 27.8668 100.717 25.7536 100.723 22.9673C100.726 21.1783 100.256 20.0843 99.9632 19.539C102.135 19.3648 104.325 19.4242 106.359 19.7481C105.042 20.4295 102.438 22.266 102.709 25.96C102.866 28.1321 104.831 29.8104 104.831 29.8104C104.831 29.8104 109.974 27.396 109.114 23.2502C108.762 21.5671 108.08 20.5543 107.601 19.9792C107.686 19.9984 107.775 20.0114 107.86 20.0307C112.145 21.0607 115.45 23.4085 116.372 27.821L117.64 27.556C116.638 22.7594 112.859 20.0675 108.255 18.9617C107.975 18.8936 107.681 18.8495 107.397 18.7928C107.595 18.4401 108.583 16.5668 107.923 13.4078C107.193 9.91526 102.244 9.3194 102.244 9.3194C102.244 9.3194 100.908 11.4186 101.465 14.0873C101.993 16.6144 104.748 18.017 106.287 18.6027C104.233 18.304 102.075 18.2485 99.9387 18.4153C99.9411 18.2196 99.9456 14.4523 97.0971 12.9269C94.1717 11.3596 91.9537 12.1712 91.9537 12.1712C91.9537 12.1712 92.095 15.8078 94.5459 17.2949C96.0952 18.2266 98.3737 18.4152 99.4093 18.4573C97.693 18.6207 96.0062 18.9257 94.396 19.3307C93.486 19.12 91.9597 18.8903 90.0987 19.2792C86.0567 20.1237 85.3522 24.5965 85.3522 24.5965Z" fill="white"/>
<path d="M66.3903 20.08C66.3903 20.08 68.7525 20.6665 71.9464 19.5123C74.3678 18.6378 75.5455 16.733 75.9941 15.7313C77.1859 15.406 78.4061 15.1192 79.6574 14.9068C78.3528 15.68 76.1288 17.2441 75.7033 19.2118C75.2883 21.1221 76.9042 23.0175 76.9042 23.0175C79.733 22.0001 81.6408 20.0451 81.6321 17.6385C81.6266 16.0934 81.1549 15.1802 80.8611 14.729C83.015 14.4324 85.1878 14.3363 87.2082 14.4791C85.9046 15.1563 83.3304 16.9174 83.6178 20.0892C83.7845 21.9545 85.7426 23.2716 85.7426 23.2716C85.7426 23.2716 90.8329 20.8404 89.9586 17.318C89.6012 15.8882 88.9197 15.0595 88.4416 14.595C88.5255 14.606 88.6142 14.6112 88.6981 14.6222C92.9549 15.2232 96.2458 17.0283 97.1828 20.7768L98.4398 20.4625C97.4212 16.3878 93.6584 14.3174 89.0848 13.6724C88.8064 13.6325 88.5147 13.6142 88.2327 13.5843C88.4278 13.2664 89.3985 11.5821 88.7277 8.89853C87.986 5.93155 83.0727 5.75009 83.0727 5.75009C83.0727 5.75009 81.7572 7.65285 82.3239 9.91995C82.8605 12.0668 85.6009 13.0926 87.1306 13.4948C85.0911 13.3751 82.9498 13.4724 80.8312 13.7603C80.8326 13.5911 80.8181 10.3374 77.9841 9.21189C75.0738 8.05528 72.8773 8.90545 72.8773 8.90545C72.8773 8.90545 73.0359 12.0364 75.475 13.1557C77.0169 13.8561 79.2785 13.8655 80.3062 13.8322C78.6041 14.0889 76.9321 14.4657 75.3366 14.9239C74.4327 14.8031 72.9172 14.7075 71.0728 15.1686C67.0668 16.17 66.3903 20.08 66.3903 20.08Z" fill="white"/>
<path d="M49.0151 20.8074C49.0151 20.8074 51.4141 20.8278 54.3131 19.0631C56.5109 17.7259 57.3181 15.7138 57.5766 14.6932C58.677 14.1317 59.8118 13.5995 60.99 13.1288C59.8593 14.1273 57.9753 16.0559 57.9102 17.9605C57.8452 19.8099 59.7507 21.1991 59.7507 21.1991C62.3191 19.6407 63.8267 17.4219 63.3923 15.2088C63.1134 13.7879 62.4935 13.0512 62.1282 12.7005C64.1684 11.9539 66.2626 11.3877 68.2508 11.0749C67.1041 11.9847 64.9147 14.1717 65.7554 17.0278C66.2475 18.7079 68.3832 19.4895 68.3832 19.4895C68.3832 19.4895 72.8987 16.1326 71.4258 13.0829C70.8254 11.8456 70.0166 11.2327 69.4698 10.9103C69.5533 10.902 69.6404 10.8873 69.7238 10.8789C73.9662 10.4961 77.4832 11.4338 79.0572 14.6778L80.2229 14.1121C78.5119 10.5858 74.4894 9.50773 69.9314 9.91975C69.6539 9.94422 69.3672 9.99149 69.0879 10.026C69.2212 9.69051 69.8662 7.9269 68.7394 5.6045C67.4936 3.03685 62.6876 3.95023 62.6876 3.95023C62.6876 3.95023 61.7462 5.99075 62.6981 7.95272C63.5996 9.81064 66.4437 10.1521 68.0013 10.186C65.9984 10.5243 63.9351 11.0847 61.9275 11.8155C61.899 11.6595 61.3089 8.66806 58.3562 8.2553C55.3237 7.83074 53.34 9.0962 53.34 9.0962C53.34 9.0962 54.0483 11.943 56.6164 12.4368C58.2385 12.7424 60.4376 12.2538 61.4302 11.9971C59.8219 12.6076 58.264 13.3221 56.7949 14.0946C55.8953 14.1823 54.4058 14.4275 52.6954 15.2574C48.9803 17.06 49.0151 20.8074 49.0151 20.8074Z" fill="white"/>
<path d="M27 109C26.3333 109 26 108.667 26 108V41C26 40.3333 26.3333 40 27 40H45.9C46.5667 40 46.9 40.3333 46.9 41C46.9 41.7333 46.5667 42.1 45.9 42.1H28.1V70.8H44.9C45.5667 70.8 45.9 71.1333 45.9 71.8C45.9 72.5333 45.5667 72.9 44.9 72.9H28.1V106.9H45.9C46.5667 106.9 46.9 107.233 46.9 107.9C46.9 108.633 46.5667 109 45.9 109H27ZM54.8594 90.9C54.1927 90.9 53.8594 90.5333 53.8594 89.8C53.8594 89.5333 53.9927 89.1 54.2594 88.5L75.5594 40.6C75.7594 40.2 76.026 40 76.3594 40C76.6927 40 76.9927 40.1333 77.2594 40.4C77.5927 40.6667 77.6594 41 77.4594 41.4L56.3594 88.8H76.3594V62.3C76.3594 61.6333 76.6927 61.3 77.3594 61.3C78.0927 61.3 78.4594 61.6333 78.4594 62.3V88.8H85.2594C85.926 88.8 86.2594 89.1333 86.2594 89.8C86.2594 90.5333 85.926 90.9 85.2594 90.9H78.4594V108C78.4594 108.667 78.0927 109 77.3594 109C76.6927 109 76.3594 108.667 76.3594 108V90.9H54.8594ZM110.327 109C105.327 109 101.46 107.6 98.7266 104.8C96.0599 102 94.7266 98 94.7266 92.8V41C94.7266 40.3333 95.0599 40 95.7266 40C96.4599 40 96.8266 40.3333 96.8266 41V93.3C96.8266 97.6333 97.9932 101 100.327 103.4C102.727 105.8 106.06 107 110.327 107C114.593 107 117.893 105.8 120.227 103.4C122.627 101 123.827 97.6333 123.827 93.3V41C123.827 40.3333 124.193 40 124.927 40C125.593 40 125.927 40.3333 125.927 41V92.8C125.927 98 124.56 102 121.827 104.8C119.16 107.6 115.327 109 110.327 109Z" fill="white"/>
</svg>
