<svg width="222" height="74" viewBox="0 0 222 74" fill="none" xmlns="http://www.w3.org/2000/svg">
<path d="M11.4991 24C11.4991 24 12.8313 26.1494 12.4286 29.5279C12.1239 32.0891 10.3012 33.6936 9.29432 34.3717C9.26334 35.6068 9.28399 36.8602 9.39759 38.1256C9.90361 36.6725 11.0447 34.1355 13.1515 33.2455C15.1962 32.3797 17.7986 33.4877 17.7986 33.4877C17.4475 36.4787 15.7745 38.8037 13.0482 39.3789C11.2978 39.7482 10.1308 39.5121 9.537 39.3365C9.81067 41.498 10.3167 43.6293 11.0499 45.5547C11.4475 44.1258 12.7126 41.2014 16.3838 40.7109C18.5422 40.4203 20.5869 42.0006 20.5869 42.0006C20.5869 42.0006 19.2754 47.5285 15.0413 47.5346C13.3219 47.5346 12.191 47.0744 11.5301 46.7232C11.5663 46.802 11.5972 46.8867 11.6334 46.9654C13.5181 50.9494 16.4923 53.7043 21 53.7043V55C16.0998 55 12.6919 51.8516 10.6678 47.5709C10.5439 47.3105 10.4406 47.032 10.327 46.7656C10.0224 47.032 8.39071 48.3822 5.16351 48.3822C1.59552 48.3822 -2.99886e-07 43.6596 -2.99886e-07 43.6596C-2.99886e-07 43.6596 1.78141 41.9219 4.50775 41.9219C7.0895 41.9219 9.02582 44.3316 9.91394 45.7182C9.20138 43.7686 8.70568 41.6676 8.43201 39.5424C8.24096 39.5848 4.55422 40.3598 2.47849 37.8834C0.345955 35.3404 0.686747 33.0033 0.686747 33.0033C0.686747 33.0033 4.27539 32.3979 6.23236 34.4928C7.46127 35.8188 8.11188 38.0105 8.36489 39.0156C8.17384 37.3021 8.12737 35.5887 8.19449 33.9297C7.80207 33.082 7.26506 31.635 7.26506 29.7338C7.26506 25.6045 11.4991 24 11.4991 24Z" fill="white"/>
<path d="M20.04 55C19.56 55 19.32 54.76 19.32 54.28V6.04C19.32 5.56 19.56 5.32 20.04 5.32H33.648C34.128 5.32 34.368 5.56 34.368 6.04C34.368 6.568 34.128 6.832 33.648 6.832H20.832V27.496H32.928C33.408 27.496 33.648 27.736 33.648 28.216C33.648 28.744 33.408 29.008 32.928 29.008H20.832V53.488H33.648C34.128 53.488 34.368 53.728 34.368 54.208C34.368 54.736 34.128 55 33.648 55H20.04ZM50.9708 55C50.5868 55 50.3468 54.808 50.2508 54.424L38.3708 6.256C38.3228 6.016 38.3468 5.8 38.4428 5.608C38.5868 5.416 38.8028 5.32 39.0908 5.32C39.4748 5.32 39.7148 5.512 39.8108 5.896L51.0428 51.544L62.2748 5.896C62.3708 5.512 62.6108 5.32 62.9948 5.32C63.2828 5.32 63.4988 5.416 63.6428 5.608C63.7868 5.8 63.8108 6.016 63.7148 6.256L51.7628 54.424C51.6668 54.808 51.4028 55 50.9708 55ZM69.8916 55C69.4116 55 69.1716 54.76 69.1716 54.28V6.04C69.1716 5.56 69.4116 5.32 69.8916 5.32H83.4996C83.9796 5.32 84.2196 5.56 84.2196 6.04C84.2196 6.568 83.9796 6.832 83.4996 6.832H70.6836V27.496H82.7796C83.2596 27.496 83.4996 27.736 83.4996 28.216C83.4996 28.744 83.2596 29.008 82.7796 29.008H70.6836V53.488H83.4996C83.9796 53.488 84.2196 53.728 84.2196 54.208C84.2196 54.736 83.9796 55 83.4996 55H69.8916ZM92.1103 55C91.6303 55 91.3903 54.76 91.3903 54.28V6.04C91.3903 5.56 91.6303 5.32 92.1103 5.32C92.4463 5.32 92.6863 5.464 92.8303 5.752L111.622 50.608V6.04C111.622 5.56 111.862 5.32 112.342 5.32C112.87 5.32 113.134 5.56 113.134 6.04V54.28C113.134 54.76 112.87 55 112.342 55C112.006 55 111.79 54.856 111.694 54.568L92.9023 9.712V54.28C92.9023 54.76 92.6383 55 92.1103 55ZM130.981 55C130.501 55 130.261 54.76 130.261 54.28V6.832H118.885C118.405 6.832 118.165 6.568 118.165 6.04C118.165 5.56 118.405 5.32 118.885 5.32H143.149C143.629 5.32 143.869 5.56 143.869 6.04C143.869 6.568 143.629 6.832 143.149 6.832H131.773V54.28C131.773 54.76 131.509 55 130.981 55Z" fill="white"/>
<path d="M140.496 49.624C139.92 49.624 139.632 49.336 139.632 48.76C139.632 48.44 139.824 48.056 140.208 47.608L173.136 1.336C173.456 0.951996 173.776 0.759995 174.096 0.759995C174.544 0.759995 174.832 0.951996 174.96 1.336C175.152 1.656 175.088 2.072 174.768 2.584L142.704 47.608H161.328L168.24 22.168C168.432 21.528 168.784 21.208 169.296 21.208C169.616 21.208 169.872 21.304 170.064 21.496C170.32 21.688 170.384 21.976 170.256 22.36L163.44 47.608H169.872C170.448 47.608 170.736 47.896 170.736 48.472C170.736 49.24 170.352 49.624 169.584 49.624H162.864L158.448 66.04C158.256 66.68 157.904 67 157.392 67C157.136 67 156.88 66.904 156.624 66.712C156.432 66.52 156.368 66.232 156.432 65.848L160.848 49.624H140.496ZM190.108 67C185.116 67 181.468 65.624 179.164 62.872C176.86 60.12 176.412 56.12 177.82 50.872L191.068 1.72C191.26 1.08 191.612 0.759995 192.124 0.759995C192.444 0.759995 192.7 0.855995 192.892 1.048C193.148 1.24 193.212 1.528 193.084 1.912L179.644 51.928C178.556 56.088 178.94 59.32 180.796 61.624C182.716 63.928 185.82 65.08 190.108 65.08C194.396 65.08 197.724 63.928 200.092 61.624C202.524 59.256 204.348 55.896 205.564 51.544L219.004 1.72C219.196 1.08 219.548 0.759995 220.06 0.759995C220.38 0.759995 220.636 0.855995 220.828 1.048C221.084 1.24 221.148 1.528 221.02 1.912L207.676 51.448C206.332 56.44 204.316 60.28 201.628 62.968C198.94 65.656 195.1 67 190.108 67Z" fill="white"/>
<line x1="10" y1="60.5" x2="150" y2="60.5" stroke="white"/>
<line x1="10.5" y1="60.5" x2="149.5" y2="60.5" stroke="white" stroke-linecap="round"/>
<path d="M18.1436 2C18.1436 2 17.0017 4.14941 17.3469 7.52793C17.6081 10.0891 19.1704 11.6936 20.0334 12.3717C20.06 13.6068 20.0423 14.8602 19.9449 16.1256C19.5112 14.6725 18.5331 12.1355 16.7273 11.2455C14.9747 10.3797 12.744 11.4877 12.744 11.4877C13.045 14.4787 14.479 16.8037 16.8158 17.3789C18.3162 17.7482 19.3164 17.5121 19.8254 17.3365C19.5909 19.498 19.1571 21.6293 18.5286 23.5547C18.1879 22.1258 17.1035 19.2014 13.9567 18.7109C12.1067 18.4203 10.3541 20.0006 10.3541 20.0006C10.3541 20.0006 11.4782 25.5285 15.1075 25.5346C16.5813 25.5346 17.5505 25.0744 18.117 24.7232C18.0861 24.802 18.0595 24.8867 18.0285 24.9654C16.4131 28.9494 13.8638 31.7043 10 31.7043V33C14.2001 33 17.1212 29.8516 18.8562 25.5709C18.9624 25.3105 19.0509 25.032 19.1483 24.7656C19.4094 25.032 20.808 26.3822 23.5741 26.3822C26.6324 26.3822 28 21.6596 28 21.6596C28 21.6596 26.4731 19.9219 24.1362 19.9219C21.9233 19.9219 20.2636 22.3316 19.5023 23.7182C20.1131 21.7686 20.538 19.6676 20.7726 17.5424C20.9363 17.5848 24.0964 18.3598 25.8756 15.8834C27.7035 13.3404 27.4114 11.0033 27.4114 11.0033C27.4114 11.0033 24.3354 10.3979 22.658 12.4928C21.6046 13.8188 21.047 16.0105 20.8301 17.0156C20.9939 15.3021 21.0337 13.5887 20.9761 11.9297C21.3125 11.082 21.7728 9.63496 21.7728 7.73379C21.7728 3.60449 18.1436 2 18.1436 2Z" fill="white"/>
<path d="M192.144 2C192.144 2 191.002 4.14941 191.347 7.52793C191.608 10.0891 193.17 11.6936 194.033 12.3717C194.06 13.6068 194.042 14.8602 193.945 16.1256C193.511 14.6725 192.533 12.1355 190.727 11.2455C188.975 10.3797 186.744 11.4877 186.744 11.4877C187.045 14.4787 188.479 16.8037 190.816 17.3789C192.316 17.7482 193.316 17.5121 193.825 17.3365C193.591 19.498 193.157 21.6293 192.529 23.5547C192.188 22.1258 191.104 19.2014 187.957 18.7109C186.107 18.4203 184.354 20.0006 184.354 20.0006C184.354 20.0006 185.478 25.5285 189.107 25.5346C190.581 25.5346 191.551 25.0744 192.117 24.7232C192.086 24.802 192.06 24.8867 192.029 24.9654C190.413 28.9494 187.864 31.7043 184 31.7043V33C188.2 33 191.121 29.8516 192.856 25.5709C192.962 25.3105 193.051 25.032 193.148 24.7656C193.409 25.032 194.808 26.3822 197.574 26.3822C200.632 26.3822 202 21.6596 202 21.6596C202 21.6596 200.473 19.9219 198.136 19.9219C195.923 19.9219 194.264 22.3316 193.502 23.7182C194.113 21.7686 194.538 19.6676 194.773 17.5424C194.936 17.5848 198.096 18.3598 199.876 15.8834C201.703 13.3404 201.411 11.0033 201.411 11.0033C201.411 11.0033 198.335 10.3979 196.658 12.4928C195.605 13.8188 195.047 16.0105 194.83 17.0156C194.994 15.3021 195.034 13.5887 194.976 11.9297C195.313 11.082 195.773 9.63496 195.773 7.73379C195.773 3.60449 192.144 2 192.144 2Z" fill="white"/>
<path d="M122.856 5C122.856 5 123.998 7.14941 123.653 10.5279C123.392 13.0891 121.83 14.6936 120.967 15.3717C120.94 16.6068 120.958 17.8602 121.055 19.1256C121.489 17.6725 122.467 15.1355 124.273 14.2455C126.025 13.3797 128.256 14.4877 128.256 14.4877C127.955 17.4787 126.521 19.8037 124.184 20.3789C122.684 20.7482 121.684 20.5121 121.175 20.3365C121.409 22.498 121.843 24.6293 122.471 26.5547C122.812 25.1258 123.896 22.2014 127.043 21.7109C128.893 21.4203 130.646 23.0006 130.646 23.0006C130.646 23.0006 129.522 28.5285 125.893 28.5346C124.419 28.5346 123.449 28.0744 122.883 27.7232C122.914 27.802 122.94 27.8867 122.971 27.9654C124.587 31.9494 127.136 34.7043 131 34.7043V36C126.8 36 123.879 32.8516 122.144 28.5709C122.038 28.3105 121.949 28.032 121.852 27.7656C121.591 28.032 120.192 29.3822 117.426 29.3822C114.368 29.3822 113 24.6596 113 24.6596C113 24.6596 114.527 22.9219 116.864 22.9219C119.077 22.9219 120.736 25.3316 121.498 26.7182C120.887 24.7686 120.462 22.6676 120.227 20.5424C120.064 20.5848 116.904 21.3598 115.124 18.8834C113.297 16.3404 113.589 14.0033 113.589 14.0033C113.589 14.0033 116.665 13.3979 118.342 15.4928C119.395 16.8188 119.953 19.0105 120.17 20.0156C120.006 18.3021 119.966 16.5887 120.024 14.9297C119.687 14.082 119.227 12.635 119.227 10.7338C119.227 6.60449 122.856 5 122.856 5Z" fill="white"/>
<path d="M58.1436 24C58.1436 24 57.0017 26.1494 57.3469 29.5279C57.6081 32.0891 59.1704 33.6936 60.0334 34.3717C60.06 35.6068 60.0423 36.8602 59.9449 38.1256C59.5112 36.6725 58.5331 34.1355 56.7273 33.2455C54.9747 32.3797 52.744 33.4877 52.744 33.4877C53.045 36.4787 54.479 38.8037 56.8158 39.3789C58.3162 39.7482 59.3164 39.5121 59.8254 39.3365C59.5909 41.498 59.1571 43.6293 58.5286 45.5547C58.1879 44.1258 57.1035 41.2014 53.9567 40.7109C52.1067 40.4203 50.3541 42.0006 50.3541 42.0006C50.3541 42.0006 51.4782 47.5285 55.1075 47.5346C56.5813 47.5346 57.5505 47.0744 58.117 46.7232C58.0861 46.802 58.0595 46.8867 58.0285 46.9654C56.4131 50.9494 53.8638 53.7043 50 53.7043V55C54.2001 55 57.1212 51.8516 58.8562 47.5709C58.9624 47.3105 59.0509 47.032 59.1483 46.7656C59.4094 47.032 60.808 48.3822 63.5741 48.3822C66.6324 48.3822 68 43.6596 68 43.6596C68 43.6596 66.4731 41.9219 64.1362 41.9219C61.9233 41.9219 60.2636 44.3316 59.5023 45.7182C60.1131 43.7686 60.538 41.6676 60.7726 39.5424C60.9363 39.5848 64.0964 40.3598 65.8756 37.8834C67.7035 35.3404 67.4114 33.0033 67.4114 33.0033C67.4114 33.0033 64.3354 32.3979 62.658 34.4928C61.6046 35.8188 61.047 38.0105 60.8301 39.0156C60.9939 37.3021 61.0337 35.5887 60.9761 33.9297C61.3125 33.082 61.7728 31.635 61.7728 29.7338C61.7728 25.6045 58.1436 24 58.1436 24Z" fill="white"/>
<path d="M14.472 71C13.872 71 13.408 70.832 13.08 70.496C12.76 70.16 12.6 69.68 12.6 69.056V62.84C12.6 62.76 12.64 62.72 12.72 62.72C12.808 62.72 12.852 62.76 12.852 62.84V69.116C12.852 69.636 12.992 70.04 13.272 70.328C13.56 70.616 13.96 70.76 14.472 70.76C14.984 70.76 15.38 70.616 15.66 70.328C15.948 70.04 16.092 69.636 16.092 69.116V62.84C16.092 62.76 16.136 62.72 16.224 62.72C16.304 62.72 16.344 62.76 16.344 62.84V69.056C16.344 69.68 16.18 70.16 15.852 70.496C15.532 70.832 15.072 71 14.472 71ZM17.7853 71C17.7053 71 17.6653 70.96 17.6653 70.88V65.396C17.6653 65.316 17.7053 65.276 17.7853 65.276C17.8733 65.276 17.9173 65.316 17.9173 65.396V65.876C18.0773 65.636 18.2493 65.468 18.4333 65.372C18.6173 65.268 18.8173 65.216 19.0333 65.216C19.6973 65.216 20.0293 65.66 20.0293 66.548V70.88C20.0293 70.96 19.9853 71 19.8973 71C19.8173 71 19.7773 70.96 19.7773 70.88V66.548C19.7773 66.156 19.7133 65.88 19.5853 65.72C19.4573 65.552 19.2733 65.468 19.0333 65.468C18.7853 65.468 18.5653 65.544 18.3733 65.696C18.1893 65.84 18.0373 66.024 17.9173 66.248V70.88C17.9173 70.96 17.8733 71 17.7853 71ZM23.361 71C23.441 71 23.481 70.96 23.481 70.88V62.564C23.481 62.484 23.441 62.444 23.361 62.444C23.273 62.444 23.229 62.484 23.229 62.564V65.744C22.989 65.392 22.701 65.216 22.365 65.216C22.085 65.216 21.849 65.344 21.657 65.6C21.473 65.848 21.333 66.192 21.237 66.632C21.149 67.064 21.105 67.564 21.105 68.132C21.105 68.7 21.149 69.204 21.237 69.644C21.333 70.084 21.473 70.432 21.657 70.688C21.849 70.936 22.085 71.06 22.365 71.06C22.701 71.06 22.989 70.884 23.229 70.532V70.88C23.229 70.96 23.273 71 23.361 71ZM22.365 65.468C22.517 65.468 22.673 65.528 22.833 65.648C22.993 65.768 23.125 65.936 23.229 66.152V70.112C23.125 70.336 22.993 70.508 22.833 70.628C22.673 70.748 22.517 70.808 22.365 70.808C22.141 70.808 21.953 70.692 21.801 70.46C21.657 70.228 21.549 69.912 21.477 69.512C21.405 69.104 21.369 68.644 21.369 68.132C21.369 67.62 21.405 67.164 21.477 66.764C21.549 66.364 21.657 66.048 21.801 65.816C21.953 65.584 22.141 65.468 22.365 65.468ZM26.0712 71.06C25.7992 71.06 25.5552 70.936 25.3392 70.688C25.1312 70.432 24.9672 70.084 24.8472 69.644C24.7352 69.204 24.6792 68.7 24.6792 68.132C24.6792 67.564 24.7352 67.06 24.8472 66.62C24.9672 66.18 25.1272 65.836 25.3272 65.588C25.5352 65.34 25.7752 65.216 26.0472 65.216C26.2952 65.216 26.5072 65.32 26.6832 65.528C26.8672 65.728 27.0072 66.008 27.1032 66.368C27.2072 66.72 27.2592 67.124 27.2592 67.58C27.2592 67.708 27.1952 67.772 27.0672 67.772H24.9552C24.9472 67.892 24.9432 68.012 24.9432 68.132C24.9432 68.644 24.9912 69.104 25.0872 69.512C25.1832 69.912 25.3152 70.228 25.4832 70.46C25.6592 70.692 25.8552 70.808 26.0712 70.808C26.2792 70.808 26.4552 70.72 26.5992 70.544C26.7512 70.368 26.8712 70.136 26.9592 69.848C26.9832 69.776 27.0272 69.74 27.0912 69.74C27.1472 69.74 27.1832 69.764 27.1992 69.812C27.2152 69.852 27.2152 69.896 27.1992 69.944C27.0872 70.288 26.9392 70.56 26.7552 70.76C26.5712 70.96 26.3432 71.06 26.0712 71.06ZM26.0472 65.468C25.7752 65.468 25.5392 65.66 25.3392 66.044C25.1472 66.428 25.0232 66.92 24.9672 67.52H27.0072C26.9912 66.936 26.8952 66.448 26.7192 66.056C26.5512 65.664 26.3272 65.468 26.0472 65.468ZM28.4611 71C28.3811 71 28.3411 70.96 28.3411 70.88V65.396C28.3411 65.316 28.3811 65.276 28.4611 65.276C28.5491 65.276 28.5931 65.316 28.5931 65.396V65.876C28.7531 65.636 28.9251 65.468 29.1091 65.372C29.2931 65.268 29.4931 65.216 29.7091 65.216C30.3731 65.216 30.7051 65.688 30.7051 66.632C30.7051 66.728 30.6651 66.776 30.5851 66.776C30.4971 66.776 30.4531 66.728 30.4531 66.632C30.4531 66.2 30.3891 65.9 30.2611 65.732C30.1331 65.556 29.9491 65.468 29.7091 65.468C29.4611 65.468 29.2411 65.544 29.0491 65.696C28.8651 65.84 28.7131 66.024 28.5931 66.248V70.88C28.5931 70.96 28.5491 71 28.4611 71ZM31.7892 71C31.7092 71 31.6692 70.96 31.6692 70.88V62.564C31.6692 62.484 31.7092 62.444 31.7892 62.444C31.8772 62.444 31.9212 62.484 31.9212 62.564V65.876C32.0812 65.636 32.2532 65.468 32.4372 65.372C32.6212 65.268 32.8212 65.216 33.0372 65.216C33.7012 65.216 34.0332 65.66 34.0332 66.548V70.88C34.0332 70.96 33.9892 71 33.9012 71C33.8212 71 33.7812 70.96 33.7812 70.88V66.548C33.7812 66.156 33.7172 65.88 33.5892 65.72C33.4612 65.552 33.2772 65.468 33.0372 65.468C32.7892 65.468 32.5692 65.544 32.3772 65.696C32.1932 65.84 32.0412 66.024 31.9212 66.248V70.88C31.9212 70.96 31.8772 71 31.7892 71ZM35.9849 71C35.6809 71 35.4369 70.896 35.2529 70.688C35.0769 70.472 34.9889 70.184 34.9889 69.824C34.9889 69.048 35.3809 68.488 36.1649 68.144L37.2209 67.688V66.548C37.2209 65.828 36.9729 65.468 36.4769 65.468C36.0929 65.468 35.7569 65.708 35.4689 66.188C35.4449 66.228 35.4129 66.248 35.3729 66.248C35.2849 66.248 35.2409 66.208 35.2409 66.128C35.2409 66.104 35.2489 66.076 35.2649 66.044C35.5769 65.492 35.9809 65.216 36.4769 65.216C37.1409 65.216 37.4729 65.66 37.4729 66.548V70.472C37.4729 70.656 37.5449 70.748 37.6889 70.748C37.7689 70.748 37.8369 70.72 37.8929 70.664C37.9169 70.64 37.9449 70.628 37.9769 70.628C38.0649 70.628 38.1089 70.672 38.1089 70.76C38.1089 70.792 38.0969 70.82 38.0729 70.844C37.9689 70.948 37.8409 71 37.6889 71C37.3769 71 37.2209 70.824 37.2209 70.472V70.34C36.9569 70.588 36.7289 70.76 36.5369 70.856C36.3529 70.952 36.1689 71 35.9849 71ZM35.2529 69.824C35.2529 70.12 35.3169 70.348 35.4449 70.508C35.5729 70.668 35.7529 70.748 35.9849 70.748C36.1529 70.748 36.3289 70.696 36.5129 70.592C36.6969 70.488 36.9329 70.304 37.2209 70.04V67.964L36.2729 68.372C35.5929 68.668 35.2529 69.152 35.2529 69.824ZM36.4769 64.628C36.2609 64.628 36.0889 64.56 35.9609 64.424C35.8329 64.28 35.7689 64.108 35.7689 63.908C35.7689 63.708 35.8329 63.54 35.9609 63.404C36.0889 63.268 36.2609 63.2 36.4769 63.2C36.6929 63.2 36.8649 63.268 36.9929 63.404C37.1209 63.54 37.1849 63.708 37.1849 63.908C37.1849 64.108 37.1209 64.28 36.9929 64.424C36.8649 64.56 36.6929 64.628 36.4769 64.628ZM36.4769 64.388C36.6209 64.388 36.7329 64.34 36.8129 64.244C36.9009 64.148 36.9449 64.036 36.9449 63.908C36.9449 63.78 36.9009 63.672 36.8129 63.584C36.7329 63.488 36.6209 63.44 36.4769 63.44C36.3249 63.44 36.2089 63.484 36.1289 63.572C36.0489 63.66 36.0089 63.772 36.0089 63.908C36.0089 64.044 36.0489 64.16 36.1289 64.256C36.2089 64.344 36.3249 64.388 36.4769 64.388ZM39.2541 71C39.1741 71 39.1341 70.96 39.1341 70.88V62.564C39.1341 62.484 39.1741 62.444 39.2541 62.444C39.3421 62.444 39.3861 62.484 39.3861 62.564V70.88C39.3861 70.96 39.3421 71 39.2541 71ZM40.9416 71C40.8616 71 40.8216 70.96 40.8216 70.88V62.564C40.8216 62.484 40.8616 62.444 40.9416 62.444C41.0296 62.444 41.0736 62.484 41.0736 62.564V70.88C41.0736 70.96 41.0296 71 40.9416 71ZM43.1451 71C42.8411 71 42.5971 70.896 42.4131 70.688C42.2371 70.472 42.1491 70.184 42.1491 69.824C42.1491 69.048 42.5411 68.488 43.3251 68.144L44.3811 67.688V66.548C44.3811 65.828 44.1331 65.468 43.6371 65.468C43.2531 65.468 42.9171 65.708 42.6291 66.188C42.6051 66.228 42.5731 66.248 42.5331 66.248C42.4451 66.248 42.4011 66.208 42.4011 66.128C42.4011 66.104 42.4091 66.076 42.4251 66.044C42.7371 65.492 43.1411 65.216 43.6371 65.216C44.3011 65.216 44.6331 65.66 44.6331 66.548V70.472C44.6331 70.656 44.7051 70.748 44.8491 70.748C44.9291 70.748 44.9971 70.72 45.0531 70.664C45.0771 70.64 45.1051 70.628 45.1371 70.628C45.2251 70.628 45.2691 70.672 45.2691 70.76C45.2691 70.792 45.2571 70.82 45.2331 70.844C45.1291 70.948 45.0011 71 44.8491 71C44.5371 71 44.3811 70.824 44.3811 70.472V70.34C44.1171 70.588 43.8891 70.76 43.6971 70.856C43.5131 70.952 43.3291 71 43.1451 71ZM42.4131 69.824C42.4131 70.12 42.4771 70.348 42.6051 70.508C42.7331 70.668 42.9131 70.748 43.1451 70.748C43.3131 70.748 43.4891 70.696 43.6731 70.592C43.8571 70.488 44.0931 70.304 44.3811 70.04V67.964L43.4331 68.372C42.7531 68.668 42.4131 69.152 42.4131 69.824ZM46.4742 69.764C46.5542 69.764 46.5942 69.808 46.5942 69.896V71.06C46.5942 71.516 46.4382 71.82 46.1262 71.972C46.0462 72.012 45.9822 72.032 45.9342 72.032C45.8542 72.032 45.8142 71.992 45.8142 71.912C45.8142 71.848 45.8502 71.804 45.9222 71.78C46.2022 71.684 46.3422 71.444 46.3422 71.06V69.896C46.3422 69.808 46.3862 69.764 46.4742 69.764ZM52.6634 71C52.0634 71 51.5994 70.832 51.2714 70.496C50.9514 70.16 50.7914 69.68 50.7914 69.056V62.84C50.7914 62.76 50.8314 62.72 50.9114 62.72C50.9994 62.72 51.0434 62.76 51.0434 62.84V69.116C51.0434 69.636 51.1834 70.04 51.4634 70.328C51.7514 70.616 52.1514 70.76 52.6634 70.76C53.1754 70.76 53.5714 70.616 53.8514 70.328C54.1394 70.04 54.2834 69.636 54.2834 69.116V62.84C54.2834 62.76 54.3274 62.72 54.4154 62.72C54.4954 62.72 54.5354 62.76 54.5354 62.84V69.056C54.5354 69.68 54.3714 70.16 54.0434 70.496C53.7234 70.832 53.2634 71 52.6634 71ZM57.1527 71C56.7927 71 56.5327 70.92 56.3727 70.76C56.2127 70.6 56.1327 70.32 56.1327 69.92V65.648H55.3167C55.2367 65.648 55.1967 65.604 55.1967 65.516C55.1967 65.436 55.2367 65.396 55.3167 65.396H56.1327V63.884C56.1327 63.804 56.1767 63.764 56.2647 63.764C56.3447 63.764 56.3847 63.804 56.3847 63.884V65.396H57.2007C57.2807 65.396 57.3207 65.436 57.3207 65.516C57.3207 65.604 57.2807 65.648 57.2007 65.648H56.3847V69.908C56.3847 70.228 56.4407 70.448 56.5527 70.568C56.6647 70.688 56.8647 70.748 57.1527 70.748C57.2407 70.748 57.2847 70.788 57.2847 70.868C57.2847 70.956 57.2407 71 57.1527 71ZM59.3251 71C59.2611 71 59.2211 70.968 59.2051 70.904L57.8611 65.432C57.8531 65.392 57.8611 65.356 57.8851 65.324C57.9091 65.292 57.9411 65.276 57.9811 65.276C58.0451 65.276 58.0851 65.308 58.1011 65.372L59.3371 70.4L60.5611 65.372C60.5771 65.308 60.6171 65.276 60.6811 65.276C60.7211 65.276 60.7531 65.292 60.7771 65.324C60.8091 65.356 60.8171 65.392 60.8011 65.432L59.4571 70.904C59.4331 70.968 59.3891 71 59.3251 71ZM62.915 71.06C62.643 71.06 62.399 70.936 62.183 70.688C61.975 70.432 61.811 70.084 61.691 69.644C61.579 69.204 61.523 68.7 61.523 68.132C61.523 67.564 61.579 67.06 61.691 66.62C61.811 66.18 61.971 65.836 62.171 65.588C62.379 65.34 62.619 65.216 62.891 65.216C63.139 65.216 63.351 65.32 63.527 65.528C63.711 65.728 63.851 66.008 63.947 66.368C64.051 66.72 64.103 67.124 64.103 67.58C64.103 67.708 64.039 67.772 63.911 67.772H61.799C61.791 67.892 61.787 68.012 61.787 68.132C61.787 68.644 61.835 69.104 61.931 69.512C62.027 69.912 62.159 70.228 62.327 70.46C62.503 70.692 62.699 70.808 62.915 70.808C63.123 70.808 63.299 70.72 63.443 70.544C63.595 70.368 63.715 70.136 63.803 69.848C63.827 69.776 63.871 69.74 63.935 69.74C63.991 69.74 64.027 69.764 64.043 69.812C64.059 69.852 64.059 69.896 64.043 69.944C63.931 70.288 63.783 70.56 63.599 70.76C63.415 70.96 63.187 71.06 62.915 71.06ZM62.891 65.468C62.619 65.468 62.383 65.66 62.183 66.044C61.991 66.428 61.867 66.92 61.811 67.52H63.851C63.835 66.936 63.739 66.448 63.563 66.056C63.395 65.664 63.171 65.468 62.891 65.468ZM66.43 71.06C66.158 71.06 65.918 70.936 65.71 70.688C65.51 70.44 65.35 70.096 65.23 69.656C65.118 69.216 65.062 68.708 65.062 68.132C65.062 67.556 65.118 67.052 65.23 66.62C65.35 66.18 65.51 65.836 65.71 65.588C65.918 65.34 66.158 65.216 66.43 65.216C66.686 65.216 66.906 65.316 67.09 65.516C67.274 65.716 67.422 65.984 67.534 66.32C67.55 66.368 67.55 66.416 67.534 66.464C67.518 66.504 67.482 66.524 67.426 66.524C67.362 66.524 67.318 66.488 67.294 66.416C67.206 66.136 67.09 65.908 66.946 65.732C66.802 65.556 66.63 65.468 66.43 65.468C66.222 65.468 66.034 65.584 65.866 65.816C65.698 66.048 65.566 66.364 65.47 66.764C65.374 67.164 65.326 67.62 65.326 68.132C65.326 68.644 65.374 69.104 65.47 69.512C65.566 69.912 65.698 70.228 65.866 70.46C66.034 70.692 66.222 70.808 66.43 70.808C66.63 70.808 66.802 70.72 66.946 70.544C67.09 70.368 67.206 70.136 67.294 69.848C67.318 69.776 67.362 69.74 67.426 69.74C67.482 69.74 67.518 69.764 67.534 69.812C67.55 69.852 67.55 69.896 67.534 69.944C67.422 70.288 67.274 70.56 67.09 70.76C66.906 70.96 66.686 71.06 66.43 71.06ZM68.7267 71C68.6467 71 68.6067 70.96 68.6067 70.88V62.564C68.6067 62.484 68.6467 62.444 68.7267 62.444C68.8147 62.444 68.8587 62.484 68.8587 62.564V67.892L70.7187 65.324C70.7427 65.292 70.7747 65.276 70.8147 65.276C70.8627 65.276 70.8987 65.3 70.9227 65.348C70.9547 65.388 70.9547 65.428 70.9227 65.468L69.7707 67.052L71.0787 70.832C71.0947 70.872 71.0907 70.912 71.0667 70.952C71.0427 70.984 71.0067 71 70.9587 71C70.9027 71 70.8627 70.972 70.8387 70.916L69.5907 67.304L68.8587 68.312V70.88C68.8587 70.96 68.8147 71 68.7267 71ZM72.172 71C72.092 71 72.052 70.96 72.052 70.88V62.564C72.052 62.484 72.092 62.444 72.172 62.444C72.26 62.444 72.304 62.484 72.304 62.564V70.88C72.304 70.96 72.26 71 72.172 71ZM74.3755 71C74.0715 71 73.8275 70.896 73.6435 70.688C73.4675 70.472 73.3795 70.184 73.3795 69.824C73.3795 69.048 73.7715 68.488 74.5555 68.144L75.6115 67.688V66.548C75.6115 65.828 75.3635 65.468 74.8675 65.468C74.4835 65.468 74.1475 65.708 73.8595 66.188C73.8355 66.228 73.8035 66.248 73.7635 66.248C73.6755 66.248 73.6315 66.208 73.6315 66.128C73.6315 66.104 73.6395 66.076 73.6555 66.044C73.9675 65.492 74.3715 65.216 74.8675 65.216C75.5315 65.216 75.8635 65.66 75.8635 66.548V70.472C75.8635 70.656 75.9355 70.748 76.0795 70.748C76.1595 70.748 76.2275 70.72 76.2835 70.664C76.3075 70.64 76.3355 70.628 76.3675 70.628C76.4555 70.628 76.4995 70.672 76.4995 70.76C76.4995 70.792 76.4875 70.82 76.4635 70.844C76.3595 70.948 76.2315 71 76.0795 71C75.7675 71 75.6115 70.824 75.6115 70.472V70.34C75.3475 70.588 75.1195 70.76 74.9275 70.856C74.7435 70.952 74.5595 71 74.3755 71ZM73.6435 69.824C73.6435 70.12 73.7075 70.348 73.8355 70.508C73.9635 70.668 74.1435 70.748 74.3755 70.748C74.5435 70.748 74.7195 70.696 74.9035 70.592C75.0875 70.488 75.3235 70.304 75.6115 70.04V67.964L74.6635 68.372C73.9835 68.668 73.6435 69.152 73.6435 69.824ZM77.7047 69.764C77.7847 69.764 77.8247 69.808 77.8247 69.896V71.06C77.8247 71.516 77.6687 71.82 77.3567 71.972C77.2767 72.012 77.2127 72.032 77.1647 72.032C77.0847 72.032 77.0447 71.992 77.0447 71.912C77.0447 71.848 77.0807 71.804 77.1527 71.78C77.4327 71.684 77.5727 71.444 77.5727 71.06V69.896C77.5727 69.808 77.6167 69.764 77.7047 69.764ZM83.8939 71C83.2939 71 82.8299 70.832 82.5019 70.496C82.1819 70.16 82.0219 69.68 82.0219 69.056V62.84C82.0219 62.76 82.0619 62.72 82.1419 62.72C82.2299 62.72 82.2739 62.76 82.2739 62.84V69.116C82.2739 69.636 82.4139 70.04 82.6939 70.328C82.9819 70.616 83.3819 70.76 83.8939 70.76C84.4059 70.76 84.8019 70.616 85.0819 70.328C85.3699 70.04 85.5139 69.636 85.5139 69.116V62.84C85.5139 62.76 85.5579 62.72 85.6459 62.72C85.7259 62.72 85.7659 62.76 85.7659 62.84V69.056C85.7659 69.68 85.6019 70.16 85.2739 70.496C84.9539 70.832 84.4939 71 83.8939 71ZM88.3832 71C88.0232 71 87.7632 70.92 87.6032 70.76C87.4432 70.6 87.3632 70.32 87.3632 69.92V65.648H86.5472C86.4672 65.648 86.4272 65.604 86.4272 65.516C86.4272 65.436 86.4672 65.396 86.5472 65.396H87.3632V63.884C87.3632 63.804 87.4072 63.764 87.4952 63.764C87.5752 63.764 87.6152 63.804 87.6152 63.884V65.396H88.4312C88.5112 65.396 88.5512 65.436 88.5512 65.516C88.5512 65.604 88.5112 65.648 88.4312 65.648H87.6152V69.908C87.6152 70.228 87.6712 70.448 87.7832 70.568C87.8952 70.688 88.0952 70.748 88.3832 70.748C88.4712 70.748 88.5152 70.788 88.5152 70.868C88.5152 70.956 88.4712 71 88.3832 71ZM89.6916 71C89.6116 71 89.5716 70.96 89.5716 70.88V62.564C89.5716 62.484 89.6116 62.444 89.6916 62.444C89.7796 62.444 89.8236 62.484 89.8236 62.564V65.744C90.0636 65.392 90.3516 65.216 90.6876 65.216C90.9676 65.216 91.1996 65.344 91.3836 65.6C91.5756 65.848 91.7156 66.192 91.8036 66.632C91.8996 67.064 91.9476 67.564 91.9476 68.132C91.9476 68.7 91.8996 69.204 91.8036 69.644C91.7156 70.084 91.5756 70.432 91.3836 70.688C91.1996 70.936 90.9676 71.06 90.6876 71.06C90.3516 71.06 90.0636 70.884 89.8236 70.532V70.88C89.8236 70.96 89.7796 71 89.6916 71ZM90.6876 65.468C90.5356 65.468 90.3796 65.528 90.2196 65.648C90.0596 65.768 89.9276 65.936 89.8236 66.152V70.112C89.9276 70.336 90.0596 70.508 90.2196 70.628C90.3796 70.748 90.5356 70.808 90.6876 70.808C90.9116 70.808 91.0956 70.692 91.2396 70.46C91.3916 70.228 91.5036 69.912 91.5756 69.512C91.6476 69.104 91.6836 68.644 91.6836 68.132C91.6836 67.62 91.6476 67.164 91.5756 66.764C91.5036 66.364 91.3916 66.048 91.2396 65.816C91.0956 65.584 90.9116 65.468 90.6876 65.468ZM93.2658 64.628C93.1858 64.628 93.1458 64.588 93.1458 64.508V63.32C93.1458 63.24 93.1858 63.2 93.2658 63.2C93.3538 63.2 93.3978 63.24 93.3978 63.32V64.508C93.3978 64.588 93.3538 64.628 93.2658 64.628ZM93.2658 71C93.1858 71 93.1458 70.96 93.1458 70.88V65.396C93.1458 65.316 93.1858 65.276 93.2658 65.276C93.3538 65.276 93.3978 65.316 93.3978 65.396V70.88C93.3978 70.96 93.3538 71 93.2658 71ZM94.9533 71C94.8733 71 94.8333 70.96 94.8333 70.88V62.564C94.8333 62.484 94.8733 62.444 94.9533 62.444C95.0413 62.444 95.0853 62.484 95.0853 62.564V70.88C95.0853 70.96 95.0413 71 94.9533 71ZM98.5368 71C98.6168 71 98.6568 70.96 98.6568 70.88V62.564C98.6568 62.484 98.6168 62.444 98.5368 62.444C98.4488 62.444 98.4048 62.484 98.4048 62.564V65.744C98.1648 65.392 97.8768 65.216 97.5408 65.216C97.2608 65.216 97.0248 65.344 96.8328 65.6C96.6488 65.848 96.5088 66.192 96.4128 66.632C96.3248 67.064 96.2808 67.564 96.2808 68.132C96.2808 68.7 96.3248 69.204 96.4128 69.644C96.5088 70.084 96.6488 70.432 96.8328 70.688C97.0248 70.936 97.2608 71.06 97.5408 71.06C97.8768 71.06 98.1648 70.884 98.4048 70.532V70.88C98.4048 70.96 98.4488 71 98.5368 71ZM97.5408 65.468C97.6928 65.468 97.8488 65.528 98.0088 65.648C98.1688 65.768 98.3008 65.936 98.4048 66.152V70.112C98.3008 70.336 98.1688 70.508 98.0088 70.628C97.8488 70.748 97.6928 70.808 97.5408 70.808C97.3168 70.808 97.1288 70.692 96.9768 70.46C96.8328 70.228 96.7248 69.912 96.6528 69.512C96.5808 69.104 96.5448 68.644 96.5448 68.132C96.5448 67.62 96.5808 67.164 96.6528 66.764C96.7248 66.364 96.8328 66.048 96.9768 65.816C97.1288 65.584 97.3168 65.468 97.5408 65.468ZM100.731 71C100.427 71 100.183 70.896 99.999 70.688C99.823 70.472 99.735 70.184 99.735 69.824C99.735 69.048 100.127 68.488 100.911 68.144L101.967 67.688V66.548C101.967 65.828 101.719 65.468 101.223 65.468C100.839 65.468 100.503 65.708 100.215 66.188C100.191 66.228 100.159 66.248 100.119 66.248C100.031 66.248 99.987 66.208 99.987 66.128C99.987 66.104 99.995 66.076 100.011 66.044C100.323 65.492 100.727 65.216 101.223 65.216C101.887 65.216 102.219 65.66 102.219 66.548V70.472C102.219 70.656 102.291 70.748 102.435 70.748C102.515 70.748 102.583 70.72 102.639 70.664C102.663 70.64 102.691 70.628 102.723 70.628C102.811 70.628 102.855 70.672 102.855 70.76C102.855 70.792 102.843 70.82 102.819 70.844C102.715 70.948 102.587 71 102.435 71C102.123 71 101.967 70.824 101.967 70.472V70.34C101.703 70.588 101.475 70.76 101.283 70.856C101.099 70.952 100.915 71 100.731 71ZM99.999 69.824C99.999 70.12 100.063 70.348 100.191 70.508C100.319 70.668 100.499 70.748 100.731 70.748C100.899 70.748 101.075 70.696 101.259 70.592C101.443 70.488 101.679 70.304 101.967 70.04V67.964L101.019 68.372C100.339 68.668 99.999 69.152 99.999 69.824ZM107.891 71.06C107.619 71.06 107.379 70.936 107.171 70.688C106.971 70.44 106.811 70.096 106.691 69.656C106.579 69.216 106.523 68.708 106.523 68.132C106.523 67.556 106.579 67.052 106.691 66.62C106.811 66.18 106.971 65.836 107.171 65.588C107.379 65.34 107.619 65.216 107.891 65.216C108.163 65.216 108.399 65.344 108.599 65.6C108.807 65.848 108.971 66.192 109.091 66.632C109.211 67.064 109.271 67.564 109.271 68.132C109.271 68.7 109.211 69.204 109.091 69.644C108.971 70.084 108.807 70.432 108.599 70.688C108.399 70.936 108.163 71.06 107.891 71.06ZM107.891 70.808C108.107 70.808 108.299 70.692 108.467 70.46C108.635 70.228 108.767 69.912 108.863 69.512C108.959 69.104 109.007 68.644 109.007 68.132C109.007 67.62 108.959 67.164 108.863 66.764C108.767 66.364 108.635 66.048 108.467 65.816C108.299 65.584 108.107 65.468 107.891 65.468C107.683 65.468 107.495 65.584 107.327 65.816C107.159 66.048 107.027 66.364 106.931 66.764C106.835 67.164 106.787 67.62 106.787 68.132C106.787 68.644 106.835 69.104 106.931 69.512C107.027 69.912 107.159 70.228 107.327 70.46C107.495 70.692 107.683 70.808 107.891 70.808ZM111.711 71.06C111.439 71.06 111.199 70.936 110.991 70.688C110.791 70.44 110.631 70.096 110.511 69.656C110.399 69.216 110.343 68.708 110.343 68.132C110.343 67.556 110.399 67.052 110.511 66.62C110.631 66.18 110.791 65.836 110.991 65.588C111.199 65.34 111.439 65.216 111.711 65.216C111.967 65.216 112.187 65.316 112.371 65.516C112.555 65.716 112.703 65.984 112.815 66.32C112.831 66.368 112.831 66.416 112.815 66.464C112.799 66.504 112.763 66.524 112.707 66.524C112.643 66.524 112.599 66.488 112.575 66.416C112.487 66.136 112.371 65.908 112.227 65.732C112.083 65.556 111.911 65.468 111.711 65.468C111.503 65.468 111.315 65.584 111.147 65.816C110.979 66.048 110.847 66.364 110.751 66.764C110.655 67.164 110.607 67.62 110.607 68.132C110.607 68.644 110.655 69.104 110.751 69.512C110.847 69.912 110.979 70.228 111.147 70.46C111.315 70.692 111.503 70.808 111.711 70.808C111.911 70.808 112.083 70.72 112.227 70.544C112.371 70.368 112.487 70.136 112.575 69.848C112.599 69.776 112.643 69.74 112.707 69.74C112.763 69.74 112.799 69.764 112.815 69.812C112.831 69.852 112.831 69.896 112.815 69.944C112.703 70.288 112.555 70.56 112.371 70.76C112.187 70.96 111.967 71.06 111.711 71.06ZM114.008 71C113.928 71 113.888 70.96 113.888 70.88V62.564C113.888 62.484 113.928 62.444 114.008 62.444C114.096 62.444 114.14 62.484 114.14 62.564V65.876C114.3 65.636 114.472 65.468 114.656 65.372C114.84 65.268 115.04 65.216 115.256 65.216C115.92 65.216 116.252 65.66 116.252 66.548V70.88C116.252 70.96 116.208 71 116.12 71C116.04 71 116 70.96 116 70.88V66.548C116 66.156 115.936 65.88 115.808 65.72C115.68 65.552 115.496 65.468 115.256 65.468C115.008 65.468 114.788 65.544 114.596 65.696C114.412 65.84 114.26 66.024 114.14 66.248V70.88C114.14 70.96 114.096 71 114.008 71ZM122.202 71C121.602 71 121.138 70.832 120.81 70.496C120.49 70.16 120.33 69.68 120.33 69.056V62.84C120.33 62.76 120.37 62.72 120.45 62.72C120.538 62.72 120.582 62.76 120.582 62.84V69.116C120.582 69.636 120.722 70.04 121.002 70.328C121.29 70.616 121.69 70.76 122.202 70.76C122.714 70.76 123.11 70.616 123.39 70.328C123.678 70.04 123.822 69.636 123.822 69.116V62.84C123.822 62.76 123.866 62.72 123.954 62.72C124.034 62.72 124.074 62.76 124.074 62.84V69.056C124.074 69.68 123.91 70.16 123.582 70.496C123.262 70.832 122.802 71 122.202 71ZM125.516 71C125.436 71 125.396 70.96 125.396 70.88V65.396C125.396 65.316 125.436 65.276 125.516 65.276C125.54 65.276 125.58 65.292 125.636 65.324C126.324 65.716 126.84 66.172 127.184 66.692C127.52 66.172 128.032 65.716 128.72 65.324C128.776 65.292 128.816 65.276 128.84 65.276C128.92 65.276 128.96 65.316 128.96 65.396V70.88C128.96 70.96 128.92 71 128.84 71C128.752 71 128.708 70.96 128.708 70.88V65.624C128.068 66.024 127.608 66.464 127.328 66.944C127.528 67.336 127.628 67.748 127.628 68.18C127.628 68.436 127.588 68.664 127.508 68.864C127.436 69.056 127.324 69.152 127.172 69.152C127.028 69.152 126.916 69.056 126.836 68.864C126.764 68.664 126.728 68.436 126.728 68.18C126.728 67.748 126.828 67.336 127.028 66.944C126.748 66.464 126.288 66.024 125.648 65.624V70.88C125.648 70.96 125.604 71 125.516 71ZM126.98 68.18C126.98 68.356 127 68.52 127.04 68.672C127.088 68.816 127.132 68.888 127.172 68.888C127.212 68.888 127.256 68.816 127.304 68.672C127.352 68.52 127.376 68.356 127.376 68.18C127.376 67.844 127.312 67.528 127.184 67.232C127.048 67.528 126.98 67.844 126.98 68.18ZM131.399 69.356H131.387C131.099 69.356 130.855 69.404 130.655 69.5C130.463 69.588 130.367 69.72 130.367 69.896C130.367 70.072 130.475 70.204 130.691 70.292C130.907 70.38 131.143 70.448 131.399 70.496L131.843 70.58C132.291 70.66 132.635 70.808 132.875 71.024C133.123 71.24 133.247 71.52 133.247 71.864C133.247 72.28 133.075 72.612 132.73 72.86C132.395 73.116 131.943 73.244 131.375 73.244C130.815 73.244 130.363 73.116 130.019 72.86C129.675 72.612 129.502 72.28 129.502 71.864C129.502 71.68 129.55 71.496 129.647 71.312C129.751 71.128 129.915 70.976 130.139 70.856C130.179 70.832 130.219 70.832 130.259 70.856C130.307 70.872 130.331 70.908 130.331 70.964C130.331 71.012 130.311 71.048 130.271 71.072C130.095 71.168 129.967 71.288 129.887 71.432C129.807 71.576 129.767 71.72 129.767 71.864C129.767 72.208 129.911 72.48 130.199 72.68C130.495 72.888 130.887 72.992 131.375 72.992C131.863 72.992 132.251 72.888 132.539 72.68C132.835 72.48 132.983 72.208 132.983 71.864C132.983 71.584 132.879 71.36 132.671 71.192C132.471 71.024 132.179 70.904 131.795 70.832L131.339 70.748C131.019 70.684 130.731 70.596 130.475 70.484C130.227 70.364 130.103 70.172 130.103 69.908C130.103 69.724 130.171 69.572 130.307 69.452C130.451 69.324 130.647 69.244 130.895 69.212C130.663 69.068 130.479 68.828 130.343 68.492C130.207 68.148 130.139 67.744 130.139 67.28C130.139 66.664 130.255 66.164 130.487 65.78C130.719 65.396 131.023 65.204 131.399 65.204C131.623 65.204 131.827 65.28 132.011 65.432C131.987 65.264 132.003 65.112 132.059 64.976C132.123 64.84 132.215 64.732 132.335 64.652C132.375 64.628 132.407 64.616 132.431 64.616C132.511 64.616 132.551 64.656 132.551 64.736C132.551 64.784 132.531 64.824 132.491 64.856C132.371 64.952 132.287 65.076 132.239 65.228C132.199 65.38 132.207 65.548 132.263 65.732C132.391 65.916 132.487 66.14 132.551 66.404C132.623 66.668 132.659 66.96 132.659 67.28C132.659 67.888 132.539 68.388 132.299 68.78C132.067 69.164 131.767 69.356 131.399 69.356ZM131.399 69.104C131.679 69.104 131.915 68.932 132.107 68.588C132.299 68.244 132.395 67.808 132.395 67.28C132.395 66.752 132.299 66.316 132.107 65.972C131.915 65.628 131.679 65.456 131.399 65.456C131.111 65.456 130.871 65.628 130.679 65.972C130.495 66.316 130.403 66.752 130.403 67.28C130.403 67.808 130.495 68.244 130.679 68.588C130.871 68.932 131.111 69.104 131.399 69.104ZM134.54 71C134.236 71 133.992 70.896 133.808 70.688C133.632 70.472 133.544 70.184 133.544 69.824C133.544 69.048 133.936 68.488 134.72 68.144L135.776 67.688V66.548C135.776 65.828 135.528 65.468 135.032 65.468C134.648 65.468 134.312 65.708 134.024 66.188C134 66.228 133.968 66.248 133.928 66.248C133.84 66.248 133.796 66.208 133.796 66.128C133.796 66.104 133.804 66.076 133.82 66.044C134.132 65.492 134.536 65.216 135.032 65.216C135.696 65.216 136.028 65.66 136.028 66.548V70.472C136.028 70.656 136.1 70.748 136.244 70.748C136.324 70.748 136.392 70.72 136.448 70.664C136.472 70.64 136.5 70.628 136.532 70.628C136.62 70.628 136.664 70.672 136.664 70.76C136.664 70.792 136.652 70.82 136.628 70.844C136.524 70.948 136.396 71 136.244 71C135.932 71 135.776 70.824 135.776 70.472V70.34C135.512 70.588 135.284 70.76 135.092 70.856C134.908 70.952 134.724 71 134.54 71ZM133.808 69.824C133.808 70.12 133.872 70.348 134 70.508C134.128 70.668 134.308 70.748 134.54 70.748C134.708 70.748 134.884 70.696 135.068 70.592C135.252 70.488 135.488 70.304 135.776 70.04V67.964L134.828 68.372C134.148 68.668 133.808 69.152 133.808 69.824ZM135.032 64.628C134.816 64.628 134.644 64.56 134.516 64.424C134.388 64.28 134.324 64.108 134.324 63.908C134.324 63.708 134.388 63.54 134.516 63.404C134.644 63.268 134.816 63.2 135.032 63.2C135.248 63.2 135.42 63.268 135.548 63.404C135.676 63.54 135.74 63.708 135.74 63.908C135.74 64.108 135.676 64.28 135.548 64.424C135.42 64.56 135.248 64.628 135.032 64.628ZM135.032 64.388C135.176 64.388 135.288 64.34 135.368 64.244C135.456 64.148 135.5 64.036 135.5 63.908C135.5 63.78 135.456 63.672 135.368 63.584C135.288 63.488 135.176 63.44 135.032 63.44C134.88 63.44 134.764 63.484 134.684 63.572C134.604 63.66 134.564 63.772 134.564 63.908C134.564 64.044 134.604 64.16 134.684 64.256C134.764 64.344 134.88 64.388 135.032 64.388ZM138.529 71C138.209 71 137.929 70.892 137.689 70.676C137.457 70.46 137.317 70.192 137.269 69.872C137.261 69.832 137.269 69.8 137.293 69.776C137.325 69.744 137.361 69.728 137.401 69.728C137.465 69.728 137.505 69.764 137.521 69.836C137.561 70.092 137.673 70.308 137.857 70.484C138.049 70.66 138.273 70.748 138.529 70.748C138.673 70.748 138.817 70.716 138.961 70.652C139.113 70.588 139.237 70.48 139.333 70.328C139.437 70.168 139.489 69.96 139.489 69.704C139.489 69.416 139.421 69.168 139.285 68.96C139.157 68.752 138.977 68.56 138.745 68.384L138.481 68.18C138.113 67.892 137.849 67.616 137.689 67.352C137.529 67.088 137.449 66.796 137.449 66.476C137.449 66.076 137.565 65.776 137.797 65.576C138.037 65.376 138.293 65.276 138.565 65.276C138.797 65.276 139.001 65.344 139.177 65.48C139.353 65.608 139.489 65.788 139.585 66.02C139.601 66.052 139.597 66.088 139.573 66.128C139.557 66.168 139.525 66.188 139.477 66.188C139.421 66.188 139.381 66.164 139.357 66.116C139.189 65.724 138.925 65.528 138.565 65.528C138.317 65.528 138.113 65.612 137.953 65.78C137.793 65.94 137.713 66.172 137.713 66.476C137.713 66.772 137.777 67.028 137.905 67.244C138.041 67.452 138.285 67.696 138.637 67.976L138.925 68.204C139.173 68.396 139.373 68.612 139.525 68.852C139.677 69.092 139.753 69.376 139.753 69.704C139.753 70.096 139.637 70.412 139.405 70.652C139.173 70.884 138.881 71 138.529 71Z" fill="white"/>
</svg>
