<svg width="222" height="67" viewBox="0 0 222 67" fill="none" xmlns="http://www.w3.org/2000/svg">
<path d="M11.4991 24C11.4991 24 12.8313 26.1494 12.4286 29.5279C12.1239 32.0891 10.3012 33.6936 9.29432 34.3717C9.26334 35.6068 9.28399 36.8602 9.39759 38.1256C9.90361 36.6725 11.0447 34.1355 13.1515 33.2455C15.1962 32.3797 17.7986 33.4877 17.7986 33.4877C17.4475 36.4787 15.7745 38.8037 13.0482 39.3789C11.2978 39.7482 10.1308 39.5121 9.537 39.3365C9.81067 41.498 10.3167 43.6293 11.0499 45.5547C11.4475 44.1258 12.7126 41.2014 16.3838 40.7109C18.5422 40.4203 20.5869 42.0006 20.5869 42.0006C20.5869 42.0006 19.2754 47.5285 15.0413 47.5346C13.3219 47.5346 12.191 47.0744 11.5301 46.7232C11.5663 46.802 11.5972 46.8867 11.6334 46.9654C13.5181 50.9494 16.4923 53.7043 21 53.7043V55C16.0998 55 12.6919 51.8516 10.6678 47.5709C10.5439 47.3105 10.4406 47.032 10.327 46.7656C10.0224 47.032 8.39071 48.3822 5.16351 48.3822C1.59552 48.3822 -2.99886e-07 43.6596 -2.99886e-07 43.6596C-2.99886e-07 43.6596 1.78141 41.9219 4.50775 41.9219C7.0895 41.9219 9.02582 44.3316 9.91394 45.7182C9.20138 43.7686 8.70568 41.6676 8.43201 39.5424C8.24096 39.5848 4.55422 40.3598 2.47849 37.8834C0.345955 35.3404 0.686747 33.0033 0.686747 33.0033C0.686747 33.0033 4.27539 32.3979 6.23236 34.4928C7.46127 35.8188 8.11188 38.0105 8.36489 39.0156C8.17384 37.3021 8.12737 35.5887 8.19449 33.9297C7.80207 33.082 7.26506 31.635 7.26506 29.7338C7.26506 25.6045 11.4991 24 11.4991 24Z" fill="white"/>
<path d="M20.04 55C19.56 55 19.32 54.76 19.32 54.28V6.04C19.32 5.56 19.56 5.32 20.04 5.32H33.648C34.128 5.32 34.368 5.56 34.368 6.04C34.368 6.568 34.128 6.832 33.648 6.832H20.832V27.496H32.928C33.408 27.496 33.648 27.736 33.648 28.216C33.648 28.744 33.408 29.008 32.928 29.008H20.832V53.488H33.648C34.128 53.488 34.368 53.728 34.368 54.208C34.368 54.736 34.128 55 33.648 55H20.04ZM50.9708 55C50.5868 55 50.3468 54.808 50.2508 54.424L38.3708 6.256C38.3228 6.016 38.3468 5.8 38.4428 5.608C38.5868 5.416 38.8028 5.32 39.0908 5.32C39.4748 5.32 39.7148 5.512 39.8108 5.896L51.0428 51.544L62.2748 5.896C62.3708 5.512 62.6108 5.32 62.9948 5.32C63.2828 5.32 63.4988 5.416 63.6428 5.608C63.7868 5.8 63.8108 6.016 63.7148 6.256L51.7628 54.424C51.6668 54.808 51.4028 55 50.9708 55ZM69.8916 55C69.4116 55 69.1716 54.76 69.1716 54.28V6.04C69.1716 5.56 69.4116 5.32 69.8916 5.32H83.4996C83.9796 5.32 84.2196 5.56 84.2196 6.04C84.2196 6.568 83.9796 6.832 83.4996 6.832H70.6836V27.496H82.7796C83.2596 27.496 83.4996 27.736 83.4996 28.216C83.4996 28.744 83.2596 29.008 82.7796 29.008H70.6836V53.488H83.4996C83.9796 53.488 84.2196 53.728 84.2196 54.208C84.2196 54.736 83.9796 55 83.4996 55H69.8916ZM92.1103 55C91.6303 55 91.3903 54.76 91.3903 54.28V6.04C91.3903 5.56 91.6303 5.32 92.1103 5.32C92.4463 5.32 92.6863 5.464 92.8303 5.752L111.622 50.608V6.04C111.622 5.56 111.862 5.32 112.342 5.32C112.87 5.32 113.134 5.56 113.134 6.04V54.28C113.134 54.76 112.87 55 112.342 55C112.006 55 111.79 54.856 111.694 54.568L92.9023 9.712V54.28C92.9023 54.76 92.6383 55 92.1103 55ZM130.981 55C130.501 55 130.261 54.76 130.261 54.28V6.832H118.885C118.405 6.832 118.165 6.568 118.165 6.04C118.165 5.56 118.405 5.32 118.885 5.32H143.149C143.629 5.32 143.869 5.56 143.869 6.04C143.869 6.568 143.629 6.832 143.149 6.832H131.773V54.28C131.773 54.76 131.509 55 130.981 55Z" fill="white"/>
<path d="M140.496 49.624C139.92 49.624 139.632 49.336 139.632 48.76C139.632 48.44 139.824 48.056 140.208 47.608L173.136 1.336C173.456 0.951996 173.776 0.759995 174.096 0.759995C174.544 0.759995 174.832 0.951996 174.96 1.336C175.152 1.656 175.088 2.072 174.768 2.584L142.704 47.608H161.328L168.24 22.168C168.432 21.528 168.784 21.208 169.296 21.208C169.616 21.208 169.872 21.304 170.064 21.496C170.32 21.688 170.384 21.976 170.256 22.36L163.44 47.608H169.872C170.448 47.608 170.736 47.896 170.736 48.472C170.736 49.24 170.352 49.624 169.584 49.624H162.864L158.448 66.04C158.256 66.68 157.904 67 157.392 67C157.136 67 156.88 66.904 156.624 66.712C156.432 66.52 156.368 66.232 156.432 65.848L160.848 49.624H140.496ZM190.108 67C185.116 67 181.468 65.624 179.164 62.872C176.86 60.12 176.412 56.12 177.82 50.872L191.068 1.72C191.26 1.08 191.612 0.759995 192.124 0.759995C192.444 0.759995 192.7 0.855995 192.892 1.048C193.148 1.24 193.212 1.528 193.084 1.912L179.644 51.928C178.556 56.088 178.94 59.32 180.796 61.624C182.716 63.928 185.82 65.08 190.108 65.08C194.396 65.08 197.724 63.928 200.092 61.624C202.524 59.256 204.348 55.896 205.564 51.544L219.004 1.72C219.196 1.08 219.548 0.759995 220.06 0.759995C220.38 0.759995 220.636 0.855995 220.828 1.048C221.084 1.24 221.148 1.528 221.02 1.912L207.676 51.448C206.332 56.44 204.316 60.28 201.628 62.968C198.94 65.656 195.1 67 190.108 67Z" fill="white"/>
<line x1="10" y1="60.5" x2="150" y2="60.5" stroke="white"/>
<line x1="10.5" y1="60.5" x2="149.5" y2="60.5" stroke="white" stroke-linecap="round"/>
<path d="M18.1436 2C18.1436 2 17.0017 4.14941 17.3469 7.52793C17.6081 10.0891 19.1704 11.6936 20.0334 12.3717C20.06 13.6068 20.0423 14.8602 19.9449 16.1256C19.5112 14.6725 18.5331 12.1355 16.7273 11.2455C14.9747 10.3797 12.744 11.4877 12.744 11.4877C13.045 14.4787 14.479 16.8037 16.8158 17.3789C18.3162 17.7482 19.3164 17.5121 19.8254 17.3365C19.5909 19.498 19.1571 21.6293 18.5286 23.5547C18.1879 22.1258 17.1035 19.2014 13.9567 18.7109C12.1067 18.4203 10.3541 20.0006 10.3541 20.0006C10.3541 20.0006 11.4782 25.5285 15.1075 25.5346C16.5813 25.5346 17.5505 25.0744 18.117 24.7232C18.0861 24.802 18.0595 24.8867 18.0285 24.9654C16.4131 28.9494 13.8638 31.7043 10 31.7043V33C14.2001 33 17.1212 29.8516 18.8562 25.5709C18.9624 25.3105 19.0509 25.032 19.1483 24.7656C19.4094 25.032 20.808 26.3822 23.5741 26.3822C26.6324 26.3822 28 21.6596 28 21.6596C28 21.6596 26.4731 19.9219 24.1362 19.9219C21.9233 19.9219 20.2636 22.3316 19.5023 23.7182C20.1131 21.7686 20.538 19.6676 20.7726 17.5424C20.9363 17.5848 24.0964 18.3598 25.8756 15.8834C27.7035 13.3404 27.4114 11.0033 27.4114 11.0033C27.4114 11.0033 24.3354 10.3979 22.658 12.4928C21.6046 13.8188 21.047 16.0105 20.8301 17.0156C20.9939 15.3021 21.0337 13.5887 20.9761 11.9297C21.3125 11.082 21.7728 9.63496 21.7728 7.73379C21.7728 3.60449 18.1436 2 18.1436 2Z" fill="white"/>
<path d="M192.144 2C192.144 2 191.002 4.14941 191.347 7.52793C191.608 10.0891 193.17 11.6936 194.033 12.3717C194.06 13.6068 194.042 14.8602 193.945 16.1256C193.511 14.6725 192.533 12.1355 190.727 11.2455C188.975 10.3797 186.744 11.4877 186.744 11.4877C187.045 14.4787 188.479 16.8037 190.816 17.3789C192.316 17.7482 193.316 17.5121 193.825 17.3365C193.591 19.498 193.157 21.6293 192.529 23.5547C192.188 22.1258 191.104 19.2014 187.957 18.7109C186.107 18.4203 184.354 20.0006 184.354 20.0006C184.354 20.0006 185.478 25.5285 189.107 25.5346C190.581 25.5346 191.551 25.0744 192.117 24.7232C192.086 24.802 192.06 24.8867 192.029 24.9654C190.413 28.9494 187.864 31.7043 184 31.7043V33C188.2 33 191.121 29.8516 192.856 25.5709C192.962 25.3105 193.051 25.032 193.148 24.7656C193.409 25.032 194.808 26.3822 197.574 26.3822C200.632 26.3822 202 21.6596 202 21.6596C202 21.6596 200.473 19.9219 198.136 19.9219C195.923 19.9219 194.264 22.3316 193.502 23.7182C194.113 21.7686 194.538 19.6676 194.773 17.5424C194.936 17.5848 198.096 18.3598 199.876 15.8834C201.703 13.3404 201.411 11.0033 201.411 11.0033C201.411 11.0033 198.335 10.3979 196.658 12.4928C195.605 13.8188 195.047 16.0105 194.83 17.0156C194.994 15.3021 195.034 13.5887 194.976 11.9297C195.313 11.082 195.773 9.63496 195.773 7.73379C195.773 3.60449 192.144 2 192.144 2Z" fill="white"/>
<path d="M122.856 5C122.856 5 123.998 7.14941 123.653 10.5279C123.392 13.0891 121.83 14.6936 120.967 15.3717C120.94 16.6068 120.958 17.8602 121.055 19.1256C121.489 17.6725 122.467 15.1355 124.273 14.2455C126.025 13.3797 128.256 14.4877 128.256 14.4877C127.955 17.4787 126.521 19.8037 124.184 20.3789C122.684 20.7482 121.684 20.5121 121.175 20.3365C121.409 22.498 121.843 24.6293 122.471 26.5547C122.812 25.1258 123.896 22.2014 127.043 21.7109C128.893 21.4203 130.646 23.0006 130.646 23.0006C130.646 23.0006 129.522 28.5285 125.893 28.5346C124.419 28.5346 123.449 28.0744 122.883 27.7232C122.914 27.802 122.94 27.8867 122.971 27.9654C124.587 31.9494 127.136 34.7043 131 34.7043V36C126.8 36 123.879 32.8516 122.144 28.5709C122.038 28.3105 121.949 28.032 121.852 27.7656C121.591 28.032 120.192 29.3822 117.426 29.3822C114.368 29.3822 113 24.6596 113 24.6596C113 24.6596 114.527 22.9219 116.864 22.9219C119.077 22.9219 120.736 25.3316 121.498 26.7182C120.887 24.7686 120.462 22.6676 120.227 20.5424C120.064 20.5848 116.904 21.3598 115.124 18.8834C113.297 16.3404 113.589 14.0033 113.589 14.0033C113.589 14.0033 116.665 13.3979 118.342 15.4928C119.395 16.8188 119.953 19.0105 120.17 20.0156C120.006 18.3021 119.966 16.5887 120.024 14.9297C119.687 14.082 119.227 12.635 119.227 10.7338C119.227 6.60449 122.856 5 122.856 5Z" fill="white"/>
<path d="M58.1436 24C58.1436 24 57.0017 26.1494 57.3469 29.5279C57.6081 32.0891 59.1704 33.6936 60.0334 34.3717C60.06 35.6068 60.0423 36.8602 59.9449 38.1256C59.5112 36.6725 58.5331 34.1355 56.7273 33.2455C54.9747 32.3797 52.744 33.4877 52.744 33.4877C53.045 36.4787 54.479 38.8037 56.8158 39.3789C58.3162 39.7482 59.3164 39.5121 59.8254 39.3365C59.5909 41.498 59.1571 43.6293 58.5286 45.5547C58.1879 44.1258 57.1035 41.2014 53.9567 40.7109C52.1067 40.4203 50.3541 42.0006 50.3541 42.0006C50.3541 42.0006 51.4782 47.5285 55.1075 47.5346C56.5813 47.5346 57.5505 47.0744 58.117 46.7232C58.0861 46.802 58.0595 46.8867 58.0285 46.9654C56.4131 50.9494 53.8638 53.7043 50 53.7043V55C54.2001 55 57.1212 51.8516 58.8562 47.5709C58.9624 47.3105 59.0509 47.032 59.1483 46.7656C59.4094 47.032 60.808 48.3822 63.5741 48.3822C66.6324 48.3822 68 43.6596 68 43.6596C68 43.6596 66.4731 41.9219 64.1362 41.9219C61.9233 41.9219 60.2636 44.3316 59.5023 45.7182C60.1131 43.7686 60.538 41.6676 60.7726 39.5424C60.9363 39.5848 64.0964 40.3598 65.8756 37.8834C67.7035 35.3404 67.4114 33.0033 67.4114 33.0033C67.4114 33.0033 64.3354 32.3979 62.658 34.4928C61.6046 35.8188 61.047 38.0105 60.8301 39.0156C60.9939 37.3021 61.0337 35.5887 60.9761 33.9297C61.3125 33.082 61.7728 31.635 61.7728 29.7338C61.7728 25.6045 58.1436 24 58.1436 24Z" fill="white"/>
</svg>
