<svg width="230" height="110" viewBox="0 0 230 110" fill="none" xmlns="http://www.w3.org/2000/svg">
<path d="M6.384 77C5.744 77 5.232 76.808 4.848 76.424C4.464 76.04 4.272 75.528 4.272 74.888V49.928C4.272 49.288 4.464 48.776 4.848 48.392C5.232 48.008 5.744 47.816 6.384 47.816H22.32C22.416 47.976 22.512 48.2 22.608 48.488C22.704 48.744 22.752 49.032 22.752 49.352C22.752 49.896 22.624 50.328 22.368 50.648C22.112 50.968 21.744 51.128 21.264 51.128H8.16V60.392H20.832C20.928 60.552 21.024 60.776 21.12 61.064C21.216 61.32 21.264 61.608 21.264 61.928C21.264 62.472 21.136 62.904 20.88 63.224C20.624 63.512 20.256 63.656 19.776 63.656H8.16V73.736H22.56C22.656 73.896 22.752 74.104 22.848 74.36C22.944 74.616 22.992 74.92 22.992 75.272C22.992 75.816 22.864 76.248 22.608 76.568C22.352 76.856 21.984 77 21.504 77H6.384ZM42.156 76.616C41.996 76.776 41.692 76.92 41.244 77.048C40.796 77.176 40.3 77.24 39.756 77.24C39.148 77.24 38.604 77.16 38.124 77C37.644 76.808 37.324 76.536 37.164 76.184C36.748 75.352 36.252 74.28 35.676 72.968C35.132 71.656 34.54 70.2 33.9 68.6C33.292 66.968 32.652 65.256 31.98 63.464C31.34 61.672 30.716 59.896 30.108 58.136C29.5 56.376 28.924 54.68 28.38 53.048C27.836 51.384 27.372 49.896 26.988 48.584C27.18 48.328 27.468 48.088 27.852 47.864C28.236 47.64 28.668 47.528 29.148 47.528C29.756 47.528 30.204 47.672 30.492 47.96C30.78 48.248 31.02 48.68 31.212 49.256C32.652 53.448 34.028 57.496 35.34 61.4C36.652 65.304 38.092 69.272 39.66 73.304H39.852C40.556 71.48 41.276 69.544 42.012 67.496C42.78 65.416 43.516 63.288 44.22 61.112C44.956 58.904 45.66 56.68 46.332 54.44C47.036 52.2 47.66 50.008 48.204 47.864C48.62 47.64 49.164 47.528 49.836 47.528C50.412 47.528 50.876 47.672 51.228 47.96C51.58 48.248 51.756 48.68 51.756 49.256C51.756 49.736 51.564 50.648 51.18 51.992C50.828 53.304 50.364 54.84 49.788 56.6C49.212 58.36 48.556 60.248 47.82 62.264C47.116 64.28 46.412 66.216 45.708 68.072C45.004 69.928 44.332 71.624 43.692 73.16C43.052 74.696 42.54 75.848 42.156 76.616ZM59.8684 77C59.2284 77 58.7164 76.808 58.3324 76.424C57.9484 76.04 57.7564 75.528 57.7564 74.888V49.928C57.7564 49.288 57.9484 48.776 58.3324 48.392C58.7164 48.008 59.2284 47.816 59.8684 47.816H75.8044C75.9004 47.976 75.9964 48.2 76.0924 48.488C76.1884 48.744 76.2364 49.032 76.2364 49.352C76.2364 49.896 76.1084 50.328 75.8524 50.648C75.5964 50.968 75.2284 51.128 74.7484 51.128H61.6444V60.392H74.3164C74.4124 60.552 74.5084 60.776 74.6044 61.064C74.7004 61.32 74.7484 61.608 74.7484 61.928C74.7484 62.472 74.6204 62.904 74.3644 63.224C74.1084 63.512 73.7404 63.656 73.2604 63.656H61.6444V73.736H76.0444C76.1404 73.896 76.2364 74.104 76.3324 74.36C76.4284 74.616 76.4764 74.92 76.4764 75.272C76.4764 75.816 76.3484 76.248 76.0924 76.568C75.8364 76.856 75.4684 77 74.9884 77H59.8684ZM85.3684 77.24C83.9604 77.24 83.2564 76.664 83.2564 75.512V48.392C83.8324 47.816 84.6964 47.528 85.8484 47.528C86.6164 47.528 87.2724 47.688 87.8164 48.008C88.3604 48.296 88.8564 48.84 89.3044 49.64L98.4724 65C98.8564 65.672 99.2564 66.392 99.6724 67.16C100.088 67.896 100.488 68.648 100.872 69.416C101.256 70.152 101.608 70.856 101.928 71.528C102.28 72.168 102.568 72.712 102.792 73.16L102.984 73.112C102.728 70.52 102.568 67.912 102.504 65.288C102.472 62.664 102.456 60.104 102.456 57.608V47.912C102.648 47.848 102.904 47.784 103.224 47.72C103.544 47.624 103.896 47.576 104.28 47.576C105.688 47.576 106.392 48.152 106.392 49.304V76.472C106.104 76.728 105.736 76.92 105.288 77.048C104.84 77.208 104.344 77.288 103.8 77.288C103.032 77.288 102.376 77.144 101.832 76.856C101.288 76.536 100.792 75.976 100.344 75.176L91.2244 59.816C90.8404 59.176 90.4244 58.472 89.9764 57.704C89.5604 56.936 89.1444 56.184 88.7284 55.448C88.3444 54.712 87.9764 54.008 87.6244 53.336C87.3044 52.664 87.0324 52.104 86.8084 51.656L86.6164 51.704C86.7764 53.24 86.9044 55 87.0004 56.984C87.0964 58.936 87.1444 60.792 87.1444 62.552V76.904C86.9844 76.968 86.7284 77.032 86.3764 77.096C86.0564 77.192 85.7204 77.24 85.3684 77.24ZM125.168 51.128V76.904C125.008 76.968 124.752 77.032 124.4 77.096C124.08 77.192 123.744 77.24 123.392 77.24C121.984 77.24 121.28 76.648 121.28 75.464V51.128H112.304C112.208 50.968 112.112 50.76 112.016 50.504C111.92 50.216 111.872 49.896 111.872 49.544C111.872 49 112 48.584 112.256 48.296C112.512 47.976 112.88 47.816 113.36 47.816H134.144C134.24 47.976 134.336 48.2 134.432 48.488C134.528 48.744 134.576 49.032 134.576 49.352C134.576 49.896 134.448 50.328 134.192 50.648C133.936 50.968 133.568 51.128 133.088 51.128H125.168ZM156.837 109.8C155.93 109.8 155.477 109.32 155.477 108.36C155.477 108.093 155.584 107.8 155.797 107.48C155.957 107.267 156.064 106.92 156.117 106.44C156.17 105.96 156.197 105.427 156.197 104.84C156.197 104.36 156.597 102.067 157.397 97.96L157.957 94.76L160.917 78.12L138.997 78.36C137.824 78.36 137.237 77.88 137.237 76.92C137.237 76.44 137.397 75.96 137.717 75.48C140.384 72.3867 142.49 69.9867 144.037 68.28L146.837 65.16C147.317 64.6267 148.81 62.9733 151.317 60.2C153.877 57.3733 156.277 54.44 158.517 51.4C161.344 47.6133 164.144 43.2133 166.917 38.2C167.45 37.3467 168.197 36.92 169.157 36.92C169.957 36.92 170.357 37.56 170.357 38.84C169.61 40.1733 168.917 41.3467 168.277 42.36C168.704 42.6267 168.917 43 168.917 43.48L168.757 45C168.437 52.84 167.157 62.68 164.917 74.52C168.65 74.2533 171.077 74.04 172.197 73.88C173.477 73.88 174.117 74.28 174.117 75.08C174.117 75.9333 173.664 76.6533 172.757 77.24C171.85 77.8267 170.597 78.12 168.997 78.12H164.197C162.17 89.2133 160.944 97.5067 160.517 103C160.517 103.213 160.464 103.853 160.357 104.92C159.984 108.173 158.81 109.8 156.837 109.8ZM151.477 74.84C156.597 74.84 159.93 74.7867 161.477 74.68C163.237 63.2133 164.57 53.9067 165.477 46.76C162.064 51.9867 157.957 57.2667 153.157 62.6C149.21 67.0267 145.664 71.08 142.517 74.76C143.477 74.8133 144.944 74.84 146.917 74.84H151.477ZM194.279 77.8C191.452 77.8 188.919 77.1067 186.679 75.72C184.439 74.3333 182.705 72.4667 181.479 70.12C180.252 67.7733 179.639 65.2133 179.639 62.44C179.639 61.3733 180.332 56.8133 181.719 48.76C183.105 40.7067 184.705 32.1467 186.519 23.08C188.385 13.96 190.065 6.70666 191.559 1.32C191.665 0.946662 191.879 0.653329 192.199 0.439999C192.572 0.226665 192.945 0.119998 193.319 0.119998C194.439 0.119998 194.999 0.57333 194.999 1.47999C193.132 8.68 190.652 20.0933 187.559 35.72C184.519 51.3467 182.999 60.52 182.999 63.24C182.999 66.3867 184.012 69 186.039 71.08C188.065 73.1067 190.839 74.12 194.359 74.12C198.679 74.12 202.145 73.1333 204.759 71.16C207.372 69.1333 209.265 66.4133 210.439 63C212.359 57.24 213.959 51.6933 215.239 46.36C216.572 41.0267 218.065 34.5467 219.719 26.92C219.932 26.0667 220.599 23.0533 221.719 17.88C222.892 12.6533 224.145 7.77333 225.479 3.24C225.745 2.33333 226.145 1.58666 226.679 0.999996C227.265 0.413331 227.799 0.119998 228.279 0.119998C229.239 0.119998 229.719 0.57333 229.719 1.47999C229.719 1.53333 229.479 2.38666 228.999 4.04C227.772 7.61333 226.732 11.1867 225.879 14.76C225.345 16.8933 224.385 21.2133 222.999 27.72C220.919 37.5333 219.025 45.7467 217.319 52.36C215.612 58.9733 213.799 64.04 211.879 67.56C208.252 74.3867 202.385 77.8 194.279 77.8Z" fill="white"/>
<line x1="1.5" y1="28.5" x2="169.547" y2="28.5" stroke="white" stroke-width="3" stroke-linecap="round"/>
<line x1="1.5" y1="92.5" x2="148.5" y2="92.5" stroke="white" stroke-width="3" stroke-linecap="round"/>
</svg>
