<svg width="94" height="50" viewBox="0 0 94 50" fill="none" xmlns="http://www.w3.org/2000/svg">
<path d="M2.394 35C2.154 35 1.962 34.928 1.818 34.784C1.674 34.64 1.602 34.448 1.602 34.208V24.848C1.602 24.608 1.674 24.416 1.818 24.272C1.962 24.128 2.154 24.056 2.394 24.056H8.37C8.406 24.116 8.442 24.2 8.478 24.308C8.514 24.404 8.532 24.512 8.532 24.632C8.532 24.836 8.484 24.998 8.388 25.118C8.292 25.238 8.154 25.298 7.974 25.298H3.06V28.772H7.812C7.848 28.832 7.884 28.916 7.92 29.024C7.956 29.12 7.974 29.228 7.974 29.348C7.974 29.552 7.926 29.714 7.83 29.834C7.734 29.942 7.596 29.996 7.416 29.996H3.06V33.776H8.46C8.496 33.836 8.532 33.914 8.568 34.01C8.604 34.106 8.622 34.22 8.622 34.352C8.622 34.556 8.574 34.718 8.478 34.838C8.382 34.946 8.244 35 8.064 35H2.394ZM15.8085 34.856C15.7485 34.916 15.6345 34.97 15.4665 35.018C15.2985 35.066 15.1125 35.09 14.9085 35.09C14.6805 35.09 14.4765 35.06 14.2965 35C14.1165 34.928 13.9965 34.826 13.9365 34.694C13.7805 34.382 13.5945 33.98 13.3785 33.488C13.1745 32.996 12.9525 32.45 12.7125 31.85C12.4845 31.238 12.2445 30.596 11.9925 29.924C11.7525 29.252 11.5185 28.586 11.2905 27.926C11.0625 27.266 10.8465 26.63 10.6425 26.018C10.4385 25.394 10.2645 24.836 10.1205 24.344C10.1925 24.248 10.3005 24.158 10.4445 24.074C10.5885 23.99 10.7505 23.948 10.9305 23.948C11.1585 23.948 11.3265 24.002 11.4345 24.11C11.5425 24.218 11.6325 24.38 11.7045 24.596C12.2445 26.168 12.7605 27.686 13.2525 29.15C13.7445 30.614 14.2845 32.102 14.8725 33.614H14.9445C15.2085 32.93 15.4785 32.204 15.7545 31.436C16.0425 30.656 16.3185 29.858 16.5825 29.042C16.8585 28.214 17.1225 27.38 17.3745 26.54C17.6385 25.7 17.8725 24.878 18.0765 24.074C18.2325 23.99 18.4365 23.948 18.6885 23.948C18.9045 23.948 19.0785 24.002 19.2105 24.11C19.3425 24.218 19.4085 24.38 19.4085 24.596C19.4085 24.776 19.3365 25.118 19.1925 25.622C19.0605 26.114 18.8865 26.69 18.6705 27.35C18.4545 28.01 18.2085 28.718 17.9325 29.474C17.6685 30.23 17.4045 30.956 17.1405 31.652C16.8765 32.348 16.6245 32.984 16.3845 33.56C16.1445 34.136 15.9525 34.568 15.8085 34.856ZM22.4506 35C22.2106 35 22.0186 34.928 21.8746 34.784C21.7306 34.64 21.6586 34.448 21.6586 34.208V24.848C21.6586 24.608 21.7306 24.416 21.8746 24.272C22.0186 24.128 22.2106 24.056 22.4506 24.056H28.4266C28.4626 24.116 28.4986 24.2 28.5346 24.308C28.5706 24.404 28.5886 24.512 28.5886 24.632C28.5886 24.836 28.5406 24.998 28.4446 25.118C28.3486 25.238 28.2106 25.298 28.0306 25.298H23.1166V28.772H27.8686C27.9046 28.832 27.9406 28.916 27.9766 29.024C28.0126 29.12 28.0306 29.228 28.0306 29.348C28.0306 29.552 27.9826 29.714 27.8866 29.834C27.7906 29.942 27.6526 29.996 27.4726 29.996H23.1166V33.776H28.5166C28.5526 33.836 28.5886 33.914 28.6246 34.01C28.6606 34.106 28.6786 34.22 28.6786 34.352C28.6786 34.556 28.6306 34.718 28.5346 34.838C28.4386 34.946 28.3006 35 28.1206 35H22.4506ZM32.0131 35.09C31.4851 35.09 31.2211 34.874 31.2211 34.442V24.272C31.4371 24.056 31.7611 23.948 32.1931 23.948C32.4811 23.948 32.7271 24.008 32.9311 24.128C33.1351 24.236 33.3211 24.44 33.4891 24.74L36.9271 30.5C37.0711 30.752 37.2211 31.022 37.3771 31.31C37.5331 31.586 37.6831 31.868 37.8271 32.156C37.9711 32.432 38.1031 32.696 38.2231 32.948C38.3551 33.188 38.4631 33.392 38.5471 33.56L38.6191 33.542C38.5231 32.57 38.4631 31.592 38.4391 30.608C38.4271 29.624 38.4211 28.664 38.4211 27.728V24.092C38.4931 24.068 38.5891 24.044 38.7091 24.02C38.8291 23.984 38.9611 23.966 39.1051 23.966C39.6331 23.966 39.8971 24.182 39.8971 24.614V34.802C39.7891 34.898 39.6511 34.97 39.4831 35.018C39.3151 35.078 39.1291 35.108 38.9251 35.108C38.6371 35.108 38.3911 35.054 38.1871 34.946C37.9831 34.826 37.7971 34.616 37.6291 34.316L34.2091 28.556C34.0651 28.316 33.9091 28.052 33.7411 27.764C33.5851 27.476 33.4291 27.194 33.2731 26.918C33.1291 26.642 32.9911 26.378 32.8591 26.126C32.7391 25.874 32.6371 25.664 32.5531 25.496L32.4811 25.514C32.5411 26.09 32.5891 26.75 32.6251 27.494C32.6611 28.226 32.6791 28.922 32.6791 29.582V34.964C32.6191 34.988 32.5231 35.012 32.3911 35.036C32.2711 35.072 32.1451 35.09 32.0131 35.09ZM46.938 25.298V34.964C46.878 34.988 46.782 35.012 46.65 35.036C46.53 35.072 46.404 35.09 46.272 35.09C45.744 35.09 45.48 34.868 45.48 34.424V25.298H42.114C42.078 25.238 42.042 25.16 42.006 25.064C41.97 24.956 41.952 24.836 41.952 24.704C41.952 24.5 42 24.344 42.096 24.236C42.192 24.116 42.33 24.056 42.51 24.056H50.304C50.34 24.116 50.376 24.2 50.412 24.308C50.448 24.404 50.466 24.512 50.466 24.632C50.466 24.836 50.418 24.998 50.322 25.118C50.226 25.238 50.088 25.298 49.908 25.298H46.938ZM60.3918 49.76C59.9838 49.76 59.7798 49.544 59.7798 49.112C59.7798 48.992 59.8278 48.86 59.9238 48.716C59.9958 48.62 60.0438 48.464 60.0678 48.248C60.0918 48.032 60.1038 47.792 60.1038 47.528C60.1038 47.312 60.2838 46.28 60.6438 44.432L60.8958 42.992L62.2278 35.504L52.3638 35.612C51.8358 35.612 51.5718 35.396 51.5718 34.964C51.5718 34.748 51.6438 34.532 51.7878 34.316C52.9878 32.924 53.9358 31.844 54.6318 31.076L55.8918 29.672C56.1078 29.432 56.7798 28.688 57.9078 27.44C59.0598 26.168 60.1398 24.848 61.1478 23.48C62.4198 21.776 63.6798 19.796 64.9278 17.54C65.1678 17.156 65.5038 16.964 65.9358 16.964C66.2958 16.964 66.4758 17.252 66.4758 17.828C66.1398 18.428 65.8278 18.956 65.5398 19.412C65.7318 19.532 65.8278 19.7 65.8278 19.916L65.7558 20.6C65.6118 24.128 65.0358 28.556 64.0278 33.884C65.7078 33.764 66.7998 33.668 67.3038 33.596C67.8798 33.596 68.1678 33.776 68.1678 34.136C68.1678 34.52 67.9638 34.844 67.5558 35.108C67.1478 35.372 66.5838 35.504 65.8638 35.504H63.7038C62.7918 40.496 62.2398 44.228 62.0478 46.7C62.0478 46.796 62.0238 47.084 61.9758 47.564C61.8078 49.028 61.2798 49.76 60.3918 49.76ZM57.9798 34.028C60.2838 34.028 61.7838 34.004 62.4798 33.956C63.2718 28.796 63.8718 24.608 64.2798 21.392C62.7438 23.744 60.8958 26.12 58.7358 28.52C56.9598 30.512 55.3638 32.336 53.9478 33.992C54.3798 34.016 55.0398 34.028 55.9278 34.028H57.9798ZM77.2407 35.36C75.9687 35.36 74.8287 35.048 73.8207 34.424C72.8127 33.8 72.0327 32.96 71.4807 31.904C70.9287 30.848 70.6527 29.696 70.6527 28.448C70.6527 27.968 70.9647 25.916 71.5887 22.292C72.2127 18.668 72.9327 14.816 73.7487 10.736C74.5887 6.632 75.3447 3.368 76.0167 0.943999C76.0647 0.775998 76.1607 0.643998 76.3047 0.547999C76.4727 0.451999 76.6407 0.403999 76.8087 0.403999C77.3127 0.403999 77.5647 0.607999 77.5647 1.016C76.7247 4.256 75.6087 9.392 74.2167 16.424C72.8487 23.456 72.1647 27.584 72.1647 28.808C72.1647 30.224 72.6207 31.4 73.5327 32.336C74.4447 33.248 75.6927 33.704 77.2767 33.704C79.2207 33.704 80.7807 33.26 81.9567 32.372C83.1327 31.46 83.9847 30.236 84.5127 28.7C85.3767 26.108 86.0967 23.612 86.6727 21.212C87.2727 18.812 87.9447 15.896 88.6887 12.464C88.7847 12.08 89.0847 10.724 89.5887 8.396C90.1167 6.044 90.6807 3.848 91.2807 1.808C91.4007 1.4 91.5807 1.064 91.8207 0.799998C92.0847 0.535999 92.3247 0.403999 92.5407 0.403999C92.9727 0.403999 93.1887 0.607999 93.1887 1.016C93.1887 1.04 93.0807 1.424 92.8647 2.168C92.3127 3.776 91.8447 5.384 91.4607 6.992C91.2207 7.952 90.7887 9.896 90.1647 12.824C89.2287 17.24 88.3767 20.936 87.6087 23.912C86.8407 26.888 86.0247 29.168 85.1607 30.752C83.5287 33.824 80.8887 35.36 77.2407 35.36Z" fill="white"/>
<line x1="0.5" y1="12.5" x2="66.5" y2="12.5" stroke="white" stroke-linecap="round"/>
<line x1="0.5" y1="44.5" x2="54.5" y2="44.5" stroke="white" stroke-linecap="round"/>
</svg>
