<svg width="379" height="100" viewBox="0 0 379 100" fill="none" xmlns="http://www.w3.org/2000/svg">
<path d="M286.719 33.8906C291.031 33.8906 293.773 34.9688 294.945 37.125C296.117 39.2812 296.703 42.1406 296.703 45.7031V87.3281C296.703 90.9375 296.117 93.7969 294.945 95.9062C293.773 97.9688 291.078 99 286.859 99C282.734 99 280.039 98.0156 278.773 96.0469C277.508 94.0312 276.875 91.3125 276.875 87.8906V75.375H252.828C243.078 75.375 238.203 72.5625 238.203 66.9375C238.203 66.375 238.25 65.8125 238.344 65.25C238.484 64.6875 238.625 64.125 238.766 63.5625L252.969 14.2031C253.672 11.5781 254.375 9.25781 255.078 7.24219C255.781 5.17969 256.859 3.5625 258.312 2.39062C259.766 1.17188 261.969 0.5625 264.922 0.5625C268.062 0.5625 270.266 1.35938 271.531 2.95312C272.844 4.5 273.5 6.51562 273.5 9C273.5 11.3438 273.242 13.2656 272.727 14.7656C272.258 16.2656 271.766 18 271.25 19.9688C271.25 20.0156 271.086 20.6016 270.758 21.7266C270.43 22.8516 270.078 24.0703 269.703 25.3828C269.281 26.7891 268.742 28.6875 268.086 31.0781C267.477 33.4688 266.914 35.5547 266.398 37.3359C265.648 39.8672 264.875 42.5859 264.078 45.4922C263.281 48.3516 262.438 51.375 261.547 54.5625L262.109 55.125H276.875V45.5625C276.875 42 277.461 39.1641 278.633 37.0547C279.805 34.9453 282.5 33.8906 286.719 33.8906ZM313.438 70.1719V16.5938C313.438 13.5938 313.695 10.8984 314.211 8.50781C314.773 6.07031 315.875 4.14844 317.516 2.74219C319.203 1.28906 321.734 0.5625 325.109 0.5625C328.578 0.5625 331.133 1.26562 332.773 2.67188C334.461 4.07812 335.539 6 336.008 8.4375C336.523 10.8281 336.781 13.5469 336.781 16.5938V72C336.922 74.0156 337.344 75.8438 338.047 77.4844C338.703 79.0312 339.688 80.3438 341 81.4219C342.359 82.4531 344.047 82.9688 346.062 82.9688C348.125 82.9688 349.836 82.4531 351.195 81.4219C352.555 80.3906 353.539 79.0781 354.148 77.4844C354.898 75.7969 355.297 73.9688 355.344 72V16.5938C355.344 13.5469 355.578 10.8281 356.047 8.4375C356.562 6 357.641 4.07812 359.281 2.67188C360.969 1.26562 363.547 0.5625 367.016 0.5625C370.438 0.5625 372.969 1.28906 374.609 2.74219C376.25 4.14844 377.328 6.07031 377.844 8.50781C378.406 10.8984 378.688 13.5938 378.688 16.5938V70.1719C378.688 75.0469 377.914 79.3125 376.367 82.9688C374.82 86.5781 372.594 89.625 369.688 92.1094C363.875 97.0781 356 99.5625 346.062 99.5625C336.219 99.5625 328.367 97.0312 322.508 91.9688C319.648 89.4844 317.422 86.4141 315.828 82.7578C314.234 79.1016 313.438 74.9062 313.438 70.1719Z" fill="#55836F"/>
<path d="M8.16016 30.6406H27.3008C29.2539 30.6406 31.0768 30.7871 32.7695 31.0801C34.4948 31.3405 35.8783 31.959 36.9199 32.9355C37.9941 33.9121 38.5312 35.4583 38.5312 37.5742C38.5312 39.6901 37.9941 41.2363 36.9199 42.2129C35.8783 43.1895 34.4948 43.8242 32.7695 44.1172C31.0768 44.3776 29.2539 44.5078 27.3008 44.5078H15.6797V57.7891H21.832C23.7526 57.7891 25.543 57.9193 27.2031 58.1797C28.8633 58.4076 30.1979 58.9935 31.207 59.9375C32.2487 60.849 32.7695 62.3464 32.7695 64.4297C32.7695 66.513 32.2487 68.0267 31.207 68.9707C30.1979 69.8822 28.8633 70.4681 27.2031 70.7285C25.543 70.9564 23.7526 71.0703 21.832 71.0703H15.6797V85.1328H27.3008C29.2539 85.1328 31.0768 85.263 32.7695 85.5234C34.4948 85.7839 35.8783 86.4023 36.9199 87.3789C37.9941 88.3229 38.5312 89.8529 38.5312 91.9688C38.5312 94.1172 37.9941 95.696 36.9199 96.7051C35.8457 97.6816 34.446 98.3164 32.7207 98.6094C31.028 98.8698 29.2214 99 27.3008 99H8.16016C5.84896 99 4.17253 98.4954 3.13086 97.4863C2.12174 96.4772 1.48698 95.1263 1.22656 93.4336C0.966146 91.7409 0.835938 89.8529 0.835938 87.7695V41.8711C0.835938 39.7878 0.966146 37.8997 1.22656 36.207C1.48698 34.5143 2.12174 33.1634 3.13086 32.1543C4.17253 31.1452 5.84896 30.6406 8.16016 30.6406ZM81.3047 30.6406C83.2253 30.6406 84.9017 31.2428 86.334 32.4473C87.7988 33.6517 88.5312 35.1328 88.5312 36.8906C88.5312 37.7044 88.4499 38.4368 88.2871 39.0879C88.1569 39.5436 88.0755 39.8529 88.043 40.0156C86.9362 44.3451 85.7969 48.7233 84.625 53.1504C83.4857 57.5775 82.3138 62.0534 81.1094 66.5781C79.9049 71.1029 78.7168 75.5788 77.5449 80.0059C76.4056 84.4329 75.2826 88.8112 74.1758 93.1406C73.6875 94.2799 73.0365 95.2565 72.2227 96.0703C71.5391 96.819 70.6439 97.5026 69.5371 98.1211C68.4629 98.707 67.112 99 65.4844 99H63.9219C62.2943 99 60.9271 98.707 59.8203 98.1211C58.7135 97.5026 57.8184 96.819 57.1348 96.0703C56.321 95.224 55.6862 94.2474 55.2305 93.1406L41.3633 40.0156C41.2331 39.7227 41.1517 39.4134 41.1191 39.0879C40.9564 38.3717 40.875 37.6393 40.875 36.8906C40.875 35.1003 41.5749 33.6191 42.9746 32.4473C44.4069 31.2428 46.1159 30.6406 48.1016 30.6406C49.6641 30.6406 50.9173 30.9824 51.8613 31.666C52.8379 32.3496 53.6029 33.1146 54.1562 33.9609C54.7747 34.8724 55.2305 35.9792 55.5234 37.2812C55.9141 38.8438 56.3372 40.6178 56.793 42.6035C57.2487 44.5566 57.7044 46.5911 58.1602 48.707C58.6159 50.8229 59.0716 52.9876 59.5273 55.2012C60.0156 57.3822 60.4714 59.498 60.8945 61.5488C61.4154 63.9577 61.9199 66.3991 62.4082 68.873C62.8965 71.347 63.401 73.8372 63.9219 76.3438H65.4844C66.6237 71.2982 67.6979 66.3665 68.707 61.5488C69.1302 59.498 69.5697 57.3822 70.0254 55.2012C70.5137 52.9876 70.9857 50.8229 71.4414 48.707C71.8971 46.5911 72.3366 44.5566 72.7598 42.6035C73.1829 40.6178 73.5573 38.8438 73.8828 37.2812C74.2734 35.9466 74.7454 34.8398 75.2988 33.9609C75.8522 33.1146 76.6009 32.3496 77.5449 31.666C78.4889 30.9824 79.7422 30.6406 81.3047 30.6406ZM103.082 30.6406H122.223C124.176 30.6406 125.999 30.7871 127.691 31.0801C129.417 31.3405 130.8 31.959 131.842 32.9355C132.916 33.9121 133.453 35.4583 133.453 37.5742C133.453 39.6901 132.916 41.2363 131.842 42.2129C130.8 43.1895 129.417 43.8242 127.691 44.1172C125.999 44.3776 124.176 44.5078 122.223 44.5078H110.602V57.7891H116.754C118.674 57.7891 120.465 57.9193 122.125 58.1797C123.785 58.4076 125.12 58.9935 126.129 59.9375C127.171 60.849 127.691 62.3464 127.691 64.4297C127.691 66.513 127.171 68.0267 126.129 68.9707C125.12 69.8822 123.785 70.4681 122.125 70.7285C120.465 70.9564 118.674 71.0703 116.754 71.0703H110.602V85.1328H122.223C124.176 85.1328 125.999 85.263 127.691 85.5234C129.417 85.7839 130.8 86.4023 131.842 87.3789C132.916 88.3229 133.453 89.8529 133.453 91.9688C133.453 94.1172 132.916 95.696 131.842 96.7051C130.768 97.6816 129.368 98.3164 127.643 98.6094C125.95 98.8698 124.143 99 122.223 99H103.082C100.771 99 99.0944 98.4954 98.0527 97.4863C97.0436 96.4772 96.4089 95.1263 96.1484 93.4336C95.888 91.7409 95.7578 89.8529 95.7578 87.7695V41.8711C95.7578 39.7878 95.888 37.8997 96.1484 36.207C96.4089 34.5143 97.0436 33.1634 98.0527 32.1543C99.0944 31.1452 100.771 30.6406 103.082 30.6406ZM166.266 36.6953L181.793 78.7852H182.965V38.2578C182.965 35.9466 183.355 34.1074 184.137 32.7402C184.951 31.3405 186.741 30.6406 189.508 30.6406C192.6 30.6406 194.57 31.3079 195.416 32.6426C196.295 33.9772 196.734 35.849 196.734 38.2578V87.7695C196.734 89.8854 196.604 91.806 196.344 93.5312C196.116 95.224 195.497 96.5586 194.488 97.5352C193.479 98.5117 191.819 99 189.508 99H183.062C181.207 99 179.693 98.5605 178.521 97.6816C177.35 96.8027 176.422 95.7285 175.738 94.459C175.055 93.1895 174.501 91.9688 174.078 90.7969L159.332 50.8555H158.16V91.3828C158.16 93.694 157.77 95.5495 156.988 96.9492C156.207 98.3164 154.417 99 151.617 99C148.492 99 146.49 98.3327 145.611 96.998C144.732 95.6634 144.293 93.7917 144.293 91.3828V41.8711C144.293 39.7552 144.407 37.8509 144.635 36.1582C144.895 34.4655 145.546 33.1309 146.588 32.1543C147.63 31.1452 149.306 30.6406 151.617 30.6406H158.062C159.69 30.6406 161.008 30.9661 162.018 31.6172C163.059 32.2357 163.906 32.9193 164.557 33.668C165.208 34.4492 165.777 35.4583 166.266 36.6953ZM215.094 30.6406H239.898C241.852 30.6406 243.674 30.7871 245.367 31.0801C247.06 31.3405 248.427 31.959 249.469 32.9355C250.51 33.9121 251.031 35.4583 251.031 37.5742C251.031 39.6576 250.51 41.1875 249.469 42.1641C248.427 43.1406 247.06 43.7754 245.367 44.0684C243.674 44.3613 241.852 44.5078 239.898 44.5078H234.918V87.8672C234.918 89.9505 234.788 91.8385 234.527 93.5312C234.267 95.224 233.616 96.5586 232.574 97.5352C231.565 98.5117 229.872 99 227.496 99C225.152 99 223.46 98.5117 222.418 97.5352C221.376 96.5586 220.725 95.224 220.465 93.5312C220.204 91.8385 220.074 89.9505 220.074 87.8672V44.5078H215.094C213.173 44.5078 211.35 44.3613 209.625 44.0684C207.932 43.7754 206.565 43.1406 205.523 42.1641C204.482 41.1875 203.961 39.6576 203.961 37.5742C203.961 35.4583 204.482 33.9121 205.523 32.9355C206.565 31.959 207.932 31.3405 209.625 31.0801C211.35 30.7871 213.173 30.6406 215.094 30.6406Z" fill="white"/>
</svg>
